<svg width="357" height="460" viewBox="0 0 357 460" fill="none" xmlns="http://www.w3.org/2000/svg">
<path fill-rule="evenodd" clip-rule="evenodd" d="M78.071 1.571C76.836 2.807 76.5 5.461 76.5 13.979V24.816L52.695 25.158L28.891 25.5L21.261 29.272C12.578 33.565 7.074 39.1 2.763 47.876L0 53.5V242.5V431.5L3.087 438C6.82 445.861 13.82 453.023 21.425 456.76L27 459.5H178.5H330L335.75 456.588C343.545 452.64 350.192 445.838 353.913 438L357 431.5V242.5V53.5L354.237 47.876C349.926 39.1 344.422 33.565 335.739 29.272L328.109 25.5L304.305 25.158L280.5 24.816V14.063C280.5 4.916 280.227 3.063 278.671 1.655C276.996 0.139001 268.588 0 178.243 0C89.94 0 79.479 0.163999 78.071 1.571ZM268 30C268 39.625 267.656 48.729 267.236 50.232C266.259 53.723 261.102 59.61 257.102 61.801C254.262 63.357 247.715 63.5 179.5 63.5C138.525 63.5 103.771 63.156 102.268 62.736C100.766 62.315 97.93 60.561 95.967 58.837C89.598 53.245 89.095 51.408 88.677 32.23C88.471 22.732 88.558 14.292 88.871 13.475C89.371 12.173 100.514 12.021 178.721 12.245L268 12.5V30ZM78.331 56C80.431 62.318 90.356 72.1 96.928 74.329C101.364 75.833 109.512 76 178.5 76C247.488 76 255.636 75.833 260.072 74.329C266.644 72.1 276.569 62.318 278.669 56L280.165 51.5L301.075 51.229C324.035 50.931 326.16 51.313 329.776 56.382L332 59.5V242.677V425.853L329.929 428.677C328.79 430.229 326.315 432.287 324.429 433.248C321.212 434.889 312.192 434.997 178.5 434.997C44.808 434.997 35.788 434.889 32.571 433.248C30.685 432.287 28.21 430.229 27.071 428.677L25 425.853V242.677C25 64.592 25.053 59.422 26.893 56.707C30.536 51.333 32.078 51.039 55.417 51.28L76.835 51.5L78.331 56ZM106.754 139.241L82.514 163.481L71.257 152.341C65.066 146.213 59.058 140.922 57.907 140.583C54.933 139.705 50.5 143.417 50.5 146.786C50.5 150.447 78.858 179 82.494 179C84.325 179 91.467 172.479 111.793 152.25C126.575 137.537 139.082 124.458 139.585 123.185C140.521 120.816 139.328 117.253 137.1 115.765C133.273 113.21 131.115 114.879 106.754 139.241ZM167.5 117C164.988 119.512 164.959 122.111 167.411 125.139L169.323 127.5L235.25 127.771C300.846 128.04 301.191 128.031 303.839 125.948C307.031 123.437 307.3 119.8 304.5 117C302.54 115.04 301.167 115 236 115C170.833 115 169.46 115.04 167.5 117ZM169.815 141.007C165.467 142.759 164.299 147.799 167.5 151C169.46 152.96 170.833 153 236 153C301.167 153 302.54 152.96 304.5 151C307.291 148.209 307.032 144.563 303.865 142.073C301.259 140.023 300.518 140.001 236.615 140.063C201.077 140.098 171.017 140.523 169.815 141.007ZM167.674 168.314C164.852 171.318 164.927 173.518 167.955 176.545L170.409 179H203.82C236.106 179 237.319 178.93 239.865 176.927C243.032 174.437 243.291 170.791 240.5 168C238.578 166.078 237.167 166 204.174 166H169.849L167.674 168.314ZM106.811 241.209L82.528 265.417L71.168 254.209C58.994 242.197 56.522 240.978 52.5 245C48.609 248.891 49.727 250.753 65.262 266.263C76.434 277.416 80.635 281 82.536 281C84.493 281 91.192 274.841 112.875 253.107C137.423 228.502 140.622 224.937 140.015 222.857C139.125 219.811 135.847 217 133.186 217C131.789 217 123.022 225.047 106.811 241.209ZM167.955 219.455C164.96 222.449 164.887 223.951 167.573 227.365L169.645 230H236.073C301.167 230 302.54 229.96 304.5 228C307.291 225.209 307.032 221.563 303.865 219.073C301.261 217.024 300.48 217 235.82 217H170.409L167.955 219.455ZM167.5 245C164.988 247.512 164.959 250.111 167.411 253.139L169.323 255.5L235.25 255.771C300.846 256.04 301.191 256.031 303.839 253.948C307.031 251.437 307.3 247.8 304.5 245C302.54 243.04 301.167 243 236 243C170.833 243 169.46 243.04 167.5 245ZM169.815 268.992C165.464 270.775 164.301 275.801 167.5 279C169.444 280.944 170.833 281 216.927 281H264.355L266.445 278.343C268.656 275.532 268.458 272.733 265.858 270C264.634 268.715 257.813 268.471 218.215 268.298C192.767 268.187 171.018 268.499 169.815 268.992ZM65.155 321.829C61.715 325.629 62.975 328.01 74.5 339.5C80.55 345.531 85.5 350.931 85.5 351.5C85.5 352.069 80.55 357.469 74.5 363.5C65.935 372.039 63.5 375.062 63.5 377.16C63.5 380.582 67.905 384.303 70.907 383.417C72.058 383.078 78.054 377.798 84.231 371.685L95.463 360.57L107.414 372.374C120.229 385.031 121.563 385.644 125.75 380.802C128.981 377.065 127.896 375.086 116.017 363.059L104.534 351.432L115.551 340.466C121.611 334.435 126.828 328.484 127.145 327.243C128.055 323.674 125.061 320 121.243 320C118.487 320 116.435 321.591 106.785 331.214L95.539 342.428L84.173 331.214C74.782 321.949 72.286 320 69.809 320C68.159 320 66.065 320.823 65.155 321.829ZM167.062 322.216C165.035 325.11 165.088 327.276 167.25 329.909L169 332.039L236.462 331.769L303.924 331.5L305.462 328.75C306.846 326.275 306.846 325.725 305.462 323.25L303.924 320.5L236.273 320.243L168.623 319.986L167.062 322.216ZM167.955 347.455C164.96 350.449 164.887 351.951 167.573 355.365L169.645 358H236.073C301.167 358 302.54 357.96 304.5 356C307.291 353.209 307.032 349.563 303.865 347.073C301.261 345.024 300.48 345 235.82 345H170.409L167.955 347.455ZM167.5 373C164.988 375.512 164.959 378.111 167.411 381.139L169.323 383.5L235.25 383.771C300.846 384.04 301.191 384.031 303.839 381.948C307.031 379.437 307.3 375.8 304.5 373C302.54 371.04 301.167 371 236 371C170.833 371 169.46 371.04 167.5 373Z" fill="url(#paint0_linear_205_30)"/>
<defs>
<linearGradient id="paint0_linear_205_30" x1="1.33083e-08" y1="230" x2="356.999" y2="229.331" gradientUnits="userSpaceOnUse">
<stop stop-color="#AA367C"/>
<stop offset="1" stop-color="#4A2FBD"/>
</linearGradient>
</defs>
</svg>
