<svg width="512" height="512" viewBox="0 0 512 512" fill="none" xmlns="http://www.w3.org/2000/svg">
<path fill-rule="evenodd" clip-rule="evenodd" d="M198.153 1.10164C127.609 8.69996 67.7312 61.3606 44.4576 136.273C28.5024 187.628 31.8795 243.851 53.8624 292.831C58.2656 302.644 68.8661 321.387 70.0128 321.387C70.56 321.387 78.6581 315.02 83.0624 311.125C83.28 310.933 81.1403 306.865 78.3083 302.085C46.4416 248.296 42.5877 179.316 68.2059 121.238C76.5173 102.397 84.688 89.8171 99.1893 73.5389C127.758 41.4708 160.697 24.1718 201.308 19.9087C222.037 17.7312 242.869 20.5435 268.267 28.9471C270.119 29.5593 270.772 28.4742 273.233 20.6877L276.067 11.7231L268.673 9.26456C256.409 5.18488 243.343 2.38093 230.4 1.04804C216.702 -0.36228 211.67 -0.353944 198.153 1.10164ZM292.752 21.7597L290.133 24.6828V85.5397V146.397L292.752 149.32L295.37 152.244H401.067H506.764L509.381 149.32L512 146.397V85.5397V24.6828L509.381 21.7597L506.764 18.8354H401.067H295.37L292.752 21.7597ZM494.933 85.5397V133.186H401.067H307.2V85.5397V37.8938H401.067H494.933V85.5397ZM324.267 66.4813V76.0105H401.067H477.867V66.4813V56.9521H401.067H324.267V66.4813ZM203.681 83.23C179.604 87.1882 160.285 107.995 155.086 135.568C152.235 150.686 155.052 168.773 162.222 181.395L165.587 187.317L161.994 190.269C154.439 196.471 145.466 207.834 141.611 216.08C134.833 230.576 134.194 234.915 133.61 270.465L133.086 302.328H141.629H150.171L150.666 271.061C151.118 242.488 151.367 239.149 153.555 232.316C156.91 221.837 163.761 211.944 171.649 206.189L178.21 201.401L184.892 205.363C193.806 210.649 202.378 212.994 212.757 212.985C222.935 212.978 227.135 211.851 238.09 206.191C245.757 202.229 246.546 202.05 249.769 203.542C255.162 206.036 265.94 218.677 269.114 226.228C273.571 236.833 274.08 241.585 274.108 272.847L274.133 302.328H282.753H291.374L290.951 268.678C290.572 238.367 290.313 234.376 288.339 228.451C282.925 212.192 275.749 200.899 265.577 192.625L259.467 187.658L262.524 182.16C269.726 169.205 272.766 149.376 269.906 133.996C265.324 109.344 245.561 88.1518 222.951 83.6469C214.027 81.8685 212.201 81.8292 203.681 83.23ZM324.267 104.598V114.127H366.933H409.6V104.598V95.0688H366.933H324.267V104.598ZM426.667 104.598V114.127H452.267H477.867V104.598V95.0688H452.267H426.667V104.598ZM222.443 102.873C235.054 106.541 244.431 115.181 249.972 128.241C253.054 135.506 253.331 137.152 253.308 148.075C253.285 158.372 252.908 160.874 250.522 166.538C246.267 176.634 239.993 183.69 230.723 188.806C223.158 192.981 222.042 193.259 212.926 193.224C200.233 193.178 193.221 190.218 184.538 181.24C157.173 152.949 174.684 102.455 212.309 101.156C214.386 101.083 218.946 101.856 222.443 102.873ZM384.139 170.897C379.814 171.714 376.127 172.549 375.945 172.754C375.761 172.959 376.108 177.406 376.714 182.637C378.241 195.81 377.133 221.831 374.404 236.847C367.597 274.326 353.792 302.831 329.116 330.361C306.87 355.181 285.742 369.025 256.316 378.066C251.287 379.611 246.958 381.116 246.695 381.409C246.016 382.166 248.689 400.005 249.479 399.992C249.839 399.986 254.755 398.666 260.404 397.059C283.101 390.602 305.159 378.425 325.421 361.17L331.376 356.098L348.277 375L365.18 393.903L358.092 402.294C349.443 412.531 346.928 419.856 348.821 429.29C349.458 432.466 350.893 436.69 352.007 438.677C353.123 440.663 368.107 457.973 385.305 477.145L416.574 512L422.675 505.115L428.777 498.23L397.771 463.707C380.718 444.72 366.323 427.944 365.782 426.428C365.137 424.616 365.215 422.803 366.007 421.148C366.673 419.761 375.104 409.881 384.745 399.19C398.553 383.879 402.874 379.753 405.101 379.753C407.392 379.753 414.819 387.436 444.259 420.261L480.59 460.769L486.407 454.191L492.224 447.614L455.447 406.532C435.219 383.936 417.041 364.586 415.051 363.532C404.598 357.993 396.177 360.35 385.337 371.849L377.478 380.185L360.573 361.334L343.667 342.483L350.601 333.423C370.813 307.016 384.722 275.069 391.625 239.198C393.713 228.35 394.026 223.293 393.988 201.081C393.964 186.996 393.506 174.107 392.972 172.442L392 169.412L384.139 170.897ZM2.61867 336.222L0 339.146V400.002V460.859L2.61867 463.782L5.23627 466.707H110.933H216.63L219.248 463.782L221.867 460.859V400.002V339.146L219.248 336.222L216.63 333.298H110.933H5.23627L2.61867 336.222ZM204.8 400.002V447.648H110.933H17.0667V400.002V352.357H110.933H204.8V400.002ZM34.1333 380.944V390.473H110.933H187.733V380.944V371.415H110.933H34.1333V380.944ZM34.1333 419.061V428.59H76.8H119.467V419.061V409.532H76.8H34.1333V419.061ZM136.533 419.061V428.59H162.133H187.733V419.061V409.532H162.133H136.533V419.061Z" fill="url(#paint0_linear_201_19)"/>
<defs>
<linearGradient id="paint0_linear_201_19" x1="9.58902e-07" y1="256.097" x2="512" y2="256.097" gradientUnits="userSpaceOnUse">
<stop stop-color="#AA367C"/>
<stop offset="1" stop-color="#4A2FBD"/>
</linearGradient>
</defs>
</svg>
