<svg width="512" height="512" viewBox="0 0 512 512" fill="none" xmlns="http://www.w3.org/2000/svg">
<path fill-rule="evenodd" clip-rule="evenodd" d="M15.4239 2.33894C9.94586 5.32566 4.46353 11.9046 1.97466 18.4785C0.109881 23.4034 0.0245357 33.6847 0.0128008 255.345L0 487.062L2.52087 493.463C5.55167 501.155 9.53407 505.86 15.9808 509.361C20.7633 511.96 21.6541 511.969 256.013 511.985L491.244 512L496.578 508.975C502.989 505.338 506.909 500.559 509.827 492.823C511.987 487.095 512 485.725 512 255.345C512 33.6668 511.916 23.4047 510.051 18.4785C507.562 11.9046 502.08 5.32566 496.602 2.33894C492.488 0.0960198 482.583 0 256.013 0C29.4429 0 19.5375 0.0960198 15.4239 2.33894ZM490.01 21.848C494.454 24.2778 494.978 27.8483 494.978 55.6927V81.8768H256.013H17.0476V55.6927C17.0476 28.2836 17.5949 24.3111 21.7032 21.9248C25.038 19.9866 486.468 19.9123 490.01 21.848ZM36.7356 44.0531C33.2183 48.274 33.2695 54.0925 36.8615 58.4029C39.137 61.1336 40.2667 61.5702 43.4554 60.948C48.3083 60.0032 50.0269 57.9408 50.8142 52.1171C52.0891 42.691 42.4643 37.1772 36.7356 44.0531ZM70.8734 44.0531C69.222 46.0336 68.2544 48.658 68.2544 51.1519C68.2544 53.6457 69.222 56.2701 70.8734 58.2506C72.5238 60.2324 74.7108 61.3935 76.7889 61.3935C78.867 61.3935 81.054 60.2324 82.7044 58.2506C84.3558 56.2701 85.3234 53.6457 85.3234 51.1519C85.3234 48.658 84.3558 46.0336 82.7044 44.0531C81.054 42.0714 78.867 40.9102 76.7889 40.9102C74.7108 40.9102 72.5238 42.0714 70.8734 44.0531ZM105.011 44.0531C101.494 48.274 101.545 54.0925 105.137 58.4029C107.413 61.1336 108.542 61.5702 111.731 60.948C116.584 60.0032 118.303 57.9408 119.09 52.1171C120.365 42.691 110.74 37.1772 105.011 44.0531ZM494.978 293.808V485.258L492.359 488.399L489.741 491.542H256.013H22.2846L19.6666 488.399L17.0476 485.258V293.808V102.36H256.013H494.978V293.808ZM36.7356 146.47C33.2588 150.64 33.2706 156.51 36.7633 160.702L39.4101 163.878L94.3336 163.523C155.289 163.131 151.998 163.633 153.228 154.534C153.746 150.707 153.383 149.351 151.107 146.621L148.362 143.327H93.8578H39.3535L36.7356 146.47ZM379.673 154.832C378.744 155.485 365.548 181.679 350.351 213.043C335.153 244.406 322.368 270.067 321.941 270.067C321.514 270.067 306.426 262.29 288.413 252.784C270.4 243.279 254.425 235.501 252.914 235.501C250.922 235.501 248.404 237.739 243.755 243.642C240.228 248.12 226.183 265.644 212.54 282.585C190.941 309.408 187.737 313.902 187.737 317.388C187.737 322.749 191.863 327.676 196.353 327.676C199.818 327.676 202.837 324.176 246.87 269.107C251.515 263.297 255.755 258.545 256.291 258.545C256.828 258.545 272.552 266.632 291.234 276.515C318.163 290.764 325.792 294.309 328.06 293.625C331.572 292.568 330.705 294.201 361.094 231.297C374.589 203.362 385.997 180.493 386.445 180.479C386.894 180.464 399.007 192.536 413.363 207.306C427.719 222.076 440.639 234.514 442.074 234.947C443.51 235.378 445.583 235.39 446.681 234.971C447.779 234.554 455.255 226.245 463.294 216.511C475.981 201.146 477.909 198.268 477.909 194.694C477.909 189.199 473.832 184.293 469.264 184.293C466.368 184.293 464.144 186.317 454.489 197.734L443.124 211.174L415.154 182.372C386.505 152.868 384.589 151.382 379.673 154.832ZM36.7356 187.436C33.2546 191.612 33.2706 197.477 36.774 201.681L39.4314 204.87L77.2754 204.502C119.277 204.097 117.888 204.395 119.09 195.5C119.608 191.674 119.245 190.318 116.969 187.587L114.224 184.293H76.7889H39.3535L36.7356 187.436ZM378.114 228.403L375.495 231.544V317.434V403.325L378.114 406.466C379.765 408.448 381.952 409.609 384.03 409.609C386.108 409.609 388.295 408.448 389.945 406.466L392.564 403.325V317.434V231.544L389.945 228.403C388.295 226.421 386.108 225.26 384.03 225.26C381.952 225.26 379.765 226.421 378.114 228.403ZM412.252 248.886L409.633 252.028V327.676V403.325L412.378 406.619C414.654 409.349 415.783 409.786 418.972 409.164C426.608 407.677 426.137 412.769 426.46 328.242L426.751 252.086L424.109 248.915C420.619 244.728 415.727 244.715 412.252 248.886ZM90.6574 267.431C63.0335 273.637 41.4637 298.966 35.8053 331.842C33.6749 344.219 33.6749 352.1 35.8053 364.477C41.4114 397.05 62.1342 421.646 89.5415 428.255C111.754 433.612 133.967 425.379 150.353 405.714C169.257 383.028 175.347 350.872 166.476 320.581C163.189 309.36 158.104 299.906 150.353 290.605C137.604 275.305 123.447 267.759 105.833 266.874C100.126 266.587 93.2978 266.838 90.6574 267.431ZM446.39 269.369L443.771 272.511V337.918V403.325L446.516 406.619C448.792 409.349 449.921 409.786 453.11 409.164C460.693 407.688 460.275 411.637 460.601 338.489L460.897 272.579L458.25 269.402C454.757 265.211 449.866 265.197 446.39 269.369ZM114.616 288.67C133.016 294.421 147.189 311.484 152.007 333.684C158.917 365.519 141.937 399.109 114.616 407.649C87.9211 415.994 59.9557 395.71 52.8188 362.828C43.3103 319.022 78.1118 277.259 114.616 288.67ZM241.563 310.336L238.944 313.477V358.401V403.325L241.689 406.619C243.964 409.349 245.094 409.786 248.283 409.164C255.695 407.721 255.446 409.388 255.785 358.985L256.091 313.571L253.433 310.382C249.93 306.178 245.043 306.158 241.563 310.336ZM275.701 310.336L273.082 313.477V358.401V403.325L275.827 406.619C278.102 409.349 279.232 409.786 282.421 409.164C289.833 407.721 289.584 409.388 289.922 358.985L290.229 313.571L287.571 310.382C284.068 306.178 279.181 306.158 275.701 310.336ZM343.977 310.336L341.358 313.477V358.401V403.325L344.102 406.619C346.378 409.349 347.508 409.786 350.696 409.164C358.109 407.721 357.86 409.388 358.198 358.985L358.504 313.571L355.847 310.382C352.344 306.178 347.456 306.158 343.977 310.336ZM309.839 330.819L307.22 333.961V368.643V403.325L309.839 406.466C311.489 408.448 313.676 409.609 315.754 409.609C317.832 409.609 320.019 408.448 321.67 406.466L324.289 403.325V368.643V333.961L321.67 330.819C320.019 328.837 317.832 327.676 315.754 327.676C313.676 327.676 311.489 328.837 309.839 330.819ZM207.425 351.302C204.827 354.418 204.806 354.642 204.806 378.884C204.806 403.126 204.827 403.35 207.425 406.466C209.075 408.448 211.262 409.609 213.34 409.609C215.419 409.609 217.606 408.448 219.256 406.466C221.854 403.35 221.875 403.126 221.875 378.884C221.875 354.642 221.854 354.418 219.256 351.302C217.606 349.32 215.419 348.159 213.34 348.159C211.262 348.159 209.075 349.32 207.425 351.302ZM207.425 433.235C205.774 435.216 204.806 437.84 204.806 440.334C204.806 442.828 205.774 445.452 207.425 447.433L210.043 450.576H332.823H455.603L458.221 447.433C459.873 445.452 460.84 442.828 460.84 440.334C460.84 437.84 459.873 435.216 458.221 433.235L455.603 430.092H332.823H210.043L207.425 433.235Z" fill="url(#paint0_linear_205_34)"/>
<defs>
<linearGradient id="paint0_linear_205_34" x1="1.94345e-08" y1="256.041" x2="512.068" y2="256.616" gradientUnits="userSpaceOnUse">
<stop stop-color="#AA367C"/>
<stop offset="1" stop-color="#4A2FBD"/>
</linearGradient>
</defs>
</svg>
