<svg width="480" height="480" viewBox="0 0 480 480" fill="none" xmlns="http://www.w3.org/2000/svg">
<path fill-rule="evenodd" clip-rule="evenodd" d="M50 1.40048C32.509 5.13648 15.371 18.5315 7.202 34.8535C-0.489 50.2215 0.0370002 33.2895 0.0170002 266.148L0 474.944L2.455 477.398L4.909 479.853H240H475.091L477.545 477.398L480 474.944V259.853V44.7625L477.545 42.3085L475.091 39.8535L303.295 39.8455L131.5 39.8365L128 33.1425C122.738 23.0775 111.593 12.3485 100.894 7.04848C96.207 4.72648 89.25 2.16548 85.436 1.35748C76.808 -0.470518 58.657 -0.448517 50 1.40048ZM83.458 17.3845C101.337 22.0415 115.628 37.0725 118.979 54.7445C119.65 58.2835 120 123.277 120 244.515V428.904L113.337 423.252C99.728 411.707 85.787 407.383 64.5 408.106C53.841 408.468 50.179 409.012 44.165 411.129C35.511 414.176 27.84 418.651 20.972 424.659L16 429.008V243.641C16 82.5565 16.195 57.5235 17.492 52.5465C21.951 35.4265 35.209 21.9795 52.112 17.4345C59.365 15.4835 76.058 15.4575 83.458 17.3845ZM464 259.853V463.853H300H136V259.853V55.8535H300H464V259.853ZM176.5 72.7215C167.297 75.1395 159.217 81.7645 154.994 90.3535C151.618 97.2195 151.531 110.117 154.815 116.884C158.245 123.951 162.311 128.204 169.175 131.905C174.972 135.031 176.21 135.314 184 135.294C191.223 135.275 193.267 134.873 197.607 132.618C205.143 128.702 208.281 125.672 212.065 118.654C215.168 112.9 215.463 111.616 215.463 103.853C215.463 96.0845 215.169 94.8095 212.052 89.0285C206.433 78.6085 197.741 73.0105 186.113 72.3235C182.476 72.1085 178.15 72.2875 176.5 72.7215ZM248 73.1605C243.092 74.7075 234.721 83.3755 233.216 88.4695C231.57 94.0395 231.57 129.667 233.216 135.237C234.839 140.73 243.123 149.014 248.616 150.637C251.71 151.551 274.446 151.853 340.188 151.853C439.534 151.853 433.703 152.314 441.299 143.865C443.677 141.22 446.157 137.271 446.811 135.089C448.412 129.746 448.412 93.9605 446.811 88.6175C446.157 86.4355 443.677 82.4865 441.299 79.8415C433.691 71.3785 439.635 71.8395 339.572 71.9555C278.416 72.0265 250.43 72.3945 248 73.1605ZM190.329 89.2175C200.603 93.5105 203.108 106.98 195.118 114.971C183.883 126.206 165.472 116.143 168.428 100.382C170.195 90.9685 181.151 85.3825 190.329 89.2175ZM429.545 90.3085C431.98 92.7425 432 92.9175 432 111.853C432 130.789 431.98 130.964 429.545 133.398L427.091 135.853H340H252.909L250.455 133.398C248.02 130.964 248 130.789 248 111.853C248 92.9175 248.02 92.7425 250.455 90.3085L252.909 87.8535H340H427.091L429.545 90.3085ZM176 173.398C176 194.941 176 194.944 178.455 197.398L180.909 199.853H250.455H320V223.853V247.853H250.455H180.909L178.455 250.308L176 252.762V299.853V346.944L178.455 349.398L180.909 351.853H254.455H328V385.398V418.944L330.455 421.398L332.909 423.853H372H411.091L413.545 421.398C415.91 419.034 416 418.447 416 405.398V391.853H408H400V399.853V407.853H372H344V374.308V340.762L341.545 338.308L339.091 335.853H265.545H192V299.853V263.853H261.545H331.091L333.545 261.398L336 258.944V223.853V188.762L333.545 186.308L331.091 183.853H261.545H192V167.853V151.853H184H176V173.398ZM352 175.853V183.853H360H368V175.853V167.853H360H352V175.853ZM384 175.853V183.853H400H416V175.853V167.853H400H384V175.853ZM432 175.853V183.853H440H448V175.853V167.853H440H432V175.853ZM352 207.853V215.853H360H368V207.853V199.853H360H352V207.853ZM384 207.853V215.853H400H416V207.853V199.853H400H384V207.853ZM432 207.853V215.853H440H448V207.853V199.853H440H432V207.853ZM352 239.853V247.853H360H368V239.853V231.853H360H352V239.853ZM384 239.853V247.853H400H416V239.853V231.853H400H384V239.853ZM432 239.853V247.853H440H448V239.853V231.853H440H432V239.853ZM398.618 272.901C392.29 274.491 383.284 279.821 378.912 284.564C376.667 287 373.405 292 371.665 295.673C368.785 301.752 368.504 303.208 368.548 311.853C368.59 320.149 369.006 322.385 371.83 329.497C375.659 339.141 386.062 355.106 396.007 366.602C406.623 378.873 409.377 378.873 419.993 366.602C429.938 355.106 440.341 339.141 444.17 329.497C446.998 322.373 447.41 320.156 447.452 311.801C447.498 302.74 447.308 301.861 443.765 294.693C437.008 281.02 425.003 272.997 410.249 272.295C405.987 272.092 400.753 272.365 398.618 272.901ZM415.384 289.069C417.968 289.833 421.382 292.159 424.555 295.319C433.015 303.743 434.097 313.067 428.138 326.208C425.201 332.686 415.421 347.614 410.44 353.221C408.242 355.696 407.729 355.884 406.696 354.591C382.224 323.945 378.245 308.48 391.445 295.308C398.492 288.276 406.041 286.309 415.384 289.069ZM400 311.853V319.853H408H416V311.853V303.853H408H400V311.853ZM152 375.853V383.853H160H168V375.853V367.853H160H152V375.853ZM184 375.853V383.853H216H248V375.853V367.853H216H184V375.853ZM264 375.853V383.853H272H280V375.853V367.853H272H264V375.853ZM152 407.853V415.853H160H168V407.853V399.853H160H152V407.853ZM184 407.853V415.853H216H248V407.853V399.853H216H184V407.853ZM264 407.853V415.853H272H280V407.853V399.853H272H264V407.853ZM83.458 425.384C92.227 427.668 100.252 432.388 106.496 438.934C112.018 444.723 117.328 454.229 118.601 460.603L119.25 463.853H68H16.75L17.399 460.603C18.672 454.229 23.982 444.723 29.504 438.934C35.598 432.545 43.734 427.687 52.112 425.434C59.365 423.483 76.058 423.457 83.458 425.384ZM152 439.853V447.853H160H168V439.853V431.853H160H152V439.853ZM184 439.853V447.853H216H248V439.853V431.853H216H184V439.853ZM264 439.853V447.853H272H280V439.853V431.853H272H264V439.853Z" fill="url(#paint0_linear_212_19)"/>
<defs>
<linearGradient id="paint0_linear_212_19" x1="5.53266e-07" y1="240" x2="480" y2="240.001" gradientUnits="userSpaceOnUse">
<stop stop-color="#AA367C"/>
<stop offset="1" stop-color="#4A2FBD"/>
</linearGradient>
</defs>
</svg>
