<svg width="88" height="90" viewBox="0 0 88 90" fill="none" xmlns="http://www.w3.org/2000/svg">
<g clip-path="url(#clip0_221_27)">
<path d="M44.776 78.08C45.224 78.656 45.48 79.552 46.184 79.616C46.568 79.552 46.696 79.36 46.696 79.04L46.504 78.72C45.992 73.28 45.736 65.728 45.736 57.92V55.296C47.272 55.808 48.936 56.192 50.536 56.384L52.84 56.448L53.032 56.384C65.704 55.68 75.88 48.704 75.88 39.68C75.88 37.44 75.24 35.072 73.896 32.64C69.096 24 56.616 21.312 47.912 21.696H47.4L47.848 18.88C47.976 17.856 45.608 17.28 45.096 17.984L44.52 21.888C35.752 22.848 24.616 27.264 20.136 35.904C18.792 38.592 18.152 41.536 18.152 44.288C18.152 47.36 18.92 50.24 20.392 52.544C23.528 57.408 28.648 58.56 32.424 58.56C35.048 58.56 37.032 57.984 37.352 57.792C37.992 57.344 37.416 56.96 36.84 57.152C36.008 57.472 34.856 57.6 33.896 57.664C26.152 57.984 20.264 52.352 20.264 44.8C20.264 42.432 20.84 39.936 22.12 37.312C26.984 29.184 35.624 25.408 44.264 24.064C43.624 31.04 43.24 39.936 43.24 48.768V52.608C41.96 51.904 41 51.072 40.616 50.176C40.36 49.792 39.912 49.216 39.336 49.28C38.568 49.216 38.312 49.536 38.632 49.984C39.464 51.712 41.192 53.12 43.24 54.208C43.368 63.232 43.88 71.872 44.776 78.08ZM71.784 32.64C73.128 34.752 73.768 36.864 73.768 38.912C73.768 46.656 64.872 53.376 53.288 54.464L50.856 54.656C49.192 54.592 47.336 54.272 45.736 53.696C45.8 42.816 46.312 31.616 47.208 23.744L49.512 23.552C50.152 23.488 50.792 23.488 51.432 23.488C59.496 23.488 67.304 26.112 71.784 32.64Z" fill="white"/>
<path d="M61.24 16.896C61.752 16.896 61.752 16.448 61.496 15.872C61.048 15.36 60.408 15.296 59.832 15.296C54.712 15.616 49.912 15.936 45.048 16.32L44.856 15.616C44.28 14.912 43.832 14.848 43.512 15.296V16.448C33.848 17.216 23.992 18.432 11.768 20.608C11.256 20.672 11.384 21.184 11.64 21.696C12.152 22.208 12.92 22.592 13.432 22.464C24.056 20.544 33.72 19.264 43.64 18.304C43.704 20.928 43.768 24.576 43.768 28.544C43.768 34.816 43.576 41.984 42.936 47.616C33.464 49.152 17.656 55.616 12.152 62.08C10.552 63.872 9.784 66.112 9.784 68.288C9.784 70.016 10.296 71.68 11.32 73.152C14.328 76.8 18.744 78.464 23.48 78.784C37.816 79.744 43.384 61.568 45.24 49.6C52.024 48.448 55.288 48 59.32 47.68C59.832 47.68 60.28 47.616 59.96 47.104C58.296 46.464 56.44 46.208 54.456 46.208C51.768 46.208 48.76 46.656 45.624 47.168C45.944 42.624 46.136 38.592 46.136 34.752C46.136 29.504 45.88 24.576 45.56 19.328L45.432 18.176C50.616 17.664 55.8 17.28 61.24 16.896ZM22.648 76.928C19.128 76.608 14.84 74.88 12.856 72.512C11.768 71.232 11.256 69.952 11.256 68.672C11.256 60.096 33.464 52.352 41.016 50.56L42.744 50.176C40.632 61.888 35.448 77.888 22.648 76.928Z" fill="#3D4143"/>
</g>
<defs>
<clipPath id="clip0_221_27">
<rect width="88" height="90" fill="white"/>
</clipPath>
</defs>
</svg>
