<svg width="512" height="512" viewBox="0 0 512 512" fill="none" xmlns="http://www.w3.org/2000/svg">
<path fill-rule="evenodd" clip-rule="evenodd" d="M32.1569 1.40078C17.4189 5.4982 5.46258 17.5685 1.53319 32.3154C-0.511062 39.9893 -0.511062 471.878 1.53319 479.552C5.6487 494.997 18.6656 507.531 33.957 510.774C42.4451 512.572 251.123 512.317 257.959 510.499C274.906 505.99 286.997 492.712 289.691 475.653L290.758 468.904H333.902C373.876 468.904 377.629 468.756 384.962 466.888C394.97 464.339 405.19 459.484 412.889 453.621C422.265 446.481 491.524 376.351 496.421 369.04C502.153 360.481 506.791 350.212 509.577 339.921C512.8 328.011 512.809 305.282 509.595 293.428C507.045 284.023 501.267 271.551 495.372 262.727C492.708 258.739 470.594 235.842 435.018 200.233C370.648 135.804 373.915 138.418 357.856 138.491C350.143 138.526 348.04 138.924 343.204 141.263C336.638 144.439 330.003 151.194 327.174 157.583C325.777 160.738 324.838 161.795 324.011 161.144C312.599 152.176 307.152 149.949 296.636 149.949H290.314V93.6667C290.314 32.4734 290.176 30.7046 284.652 21.286C278.991 11.6353 267.985 3.51848 257.179 1.02983C250.277 -0.55994 37.9514 -0.209989 32.1569 1.40078ZM258.795 19.6292C264.114 22.5028 268.732 27.4571 271.224 32.9653C272.982 36.8498 273.263 39.5494 273.282 52.7125L273.304 67.9604H145.14H16.9756L17.3198 51.7127C17.605 38.2696 17.9842 34.861 19.5192 31.9655C23.0953 25.2194 29.2441 20.0171 36.1533 17.8924C37.5321 17.4685 87.2905 17.1995 146.727 17.2945L254.793 17.4675L258.795 19.6292ZM124.422 35.011C121.684 36.1089 119.336 41.1711 119.986 44.5707C120.243 45.9115 121.584 47.8982 122.968 48.986C125.282 50.8038 127.074 50.9628 145.305 50.9628C164.717 50.9628 165.183 50.9138 167.884 48.5931C171.748 45.2716 171.748 39.6564 167.884 36.3348C165.184 34.0142 164.728 33.9662 145.92 34.0282C135.357 34.0632 125.683 34.5061 124.422 35.011ZM209.765 35.173C206.637 36.9657 205.329 39.1854 205.295 42.7589C205.21 51.4797 216.945 54.0913 221.109 46.2794C222.985 42.7579 222.47 40.0073 219.348 36.8878C216.277 33.8192 213.115 33.2533 209.765 35.173ZM242.325 36.7708C238.474 40.6192 238.254 45.0256 241.74 48.5081C246.871 53.6364 256.294 50.1119 256.294 43.0649C256.294 39.2104 252.686 35.135 248.579 34.3471C245.893 33.8322 244.869 34.2291 242.325 36.7708ZM273.304 122.798C273.304 158.614 273.203 160.728 271.416 162.345C270.377 163.284 268.29 166.84 266.776 170.249C265.263 173.656 263.957 176.538 263.873 176.651C263.789 176.764 261.711 176.161 259.256 175.311C252.715 173.047 242.238 173.836 235.126 177.128C228.404 180.239 222.242 186.273 219.171 192.75C217.947 195.33 216.781 197.643 216.577 197.888C216.375 198.134 203.728 185.921 188.472 170.749C171.03 153.4 159.064 142.288 156.233 140.807C152.334 138.766 150.319 138.45 141.223 138.45C131.779 138.45 130.208 138.719 125.674 141.111C119.531 144.351 112.773 151.478 109.875 157.772C108.204 161.401 107.725 164.348 107.733 170.946C107.752 186.584 102.685 180.59 188.926 266.976L265.331 343.508L265.065 371.961L264.799 400.413L244.787 400.913C225.722 401.389 224.504 401.539 219.075 404.083C208.491 409.04 200.47 419.669 199.471 430.057L199.005 434.908H188.84H178.677L175.804 428.861C170.167 417.001 158.727 409.912 145.226 409.912C131.771 409.912 121.324 416.313 115.077 428.385L111.705 434.901L64.4266 434.904L17.1477 434.908V259.933V84.9579H145.226H273.304V122.798ZM124.521 103.421C116.913 106.729 117.854 125.57 125.727 127.545C134.104 129.646 139.332 120.503 136.264 109.119C135.327 105.637 134.443 104.529 131.691 103.379C127.684 101.707 128.479 101.703 124.521 103.421ZM80.6415 109.409C76.626 113.421 77.3274 117.24 83.7714 126.459C86.8442 130.854 90.2713 135.238 91.387 136.201C96.2059 140.357 104.601 136.281 104.601 129.784C104.601 127.272 103.168 124.286 99.2338 118.599C96.282 114.333 92.7538 109.967 91.394 108.899C87.9789 106.213 83.6323 106.42 80.6415 109.409ZM54.9168 143.345C51.8539 145.668 50.8082 150.352 52.5853 153.786C53.8211 156.175 55.8373 157.45 62.4103 160C73.7953 164.418 78.5542 164.888 81.7291 161.907C85.0041 158.832 85.1052 153.152 81.9372 150.196C79.1425 147.588 63.8712 141.939 59.7327 141.982C58.0487 141.999 55.8823 142.613 54.9168 143.345ZM147.912 155.997C149.47 156.577 177.352 183.618 210.286 216.488L269.841 275.931H274.001C277.304 275.931 278.589 275.388 280.235 273.296C284.865 267.415 284.391 266.7 258.452 240.52C237.769 219.645 234.453 215.873 233.542 212.188C231.158 202.548 237.205 192.803 246.506 191.295C255.354 189.86 255.949 190.276 281.875 216.022C305.478 239.462 306.037 239.936 310.069 239.936C315.139 239.936 318.331 236.534 318.331 231.135C318.331 227.882 316.99 226.293 301.343 211.023C283.843 193.944 281.309 190.454 281.309 183.444C281.309 172.227 292.167 164.465 302.955 167.972C305.811 168.9 311.449 173.777 324.474 186.586C340.841 202.679 342.391 203.941 345.783 203.941C350.66 203.941 354.353 200.342 354.353 195.588C354.353 192.783 353.245 190.922 348.369 185.546C341.787 178.288 340.85 176.032 341.613 169.272C342.261 163.522 344.776 160.054 350.371 157.198C355.527 154.565 359.986 154.348 365.096 156.482C367.57 157.515 384.915 174.085 418.212 207.225C445.405 234.29 470.996 260.219 475.081 264.846C483.2 274.043 490.278 286.942 492.959 297.428C496.747 312.24 495.587 330.151 489.911 344.452C484.25 358.723 480.382 363.302 440.071 403.472C404.51 438.908 401.366 441.778 394.378 445.207C380.345 452.092 382.894 451.906 302.428 451.906C230.846 451.906 229.852 451.879 225.577 449.81C214.155 444.285 213.041 428.06 223.605 421.071L227.625 418.411L268.725 417.911C308.616 417.426 309.947 417.346 313.924 415.22C322.354 410.712 327.58 402.239 327.679 392.914C327.801 381.5 333.495 387.812 225.773 279.93C119.282 173.28 123.31 177.707 124.524 168.666C125.916 158.295 137.39 152.079 147.912 155.997ZM62.8306 183.517C52.1641 186.441 52.3122 186.357 50.5731 190.517C48.9211 194.466 49.8957 197.938 53.3288 200.341C56.4107 202.497 59.0903 202.351 69.6798 199.447C82.1214 196.035 85.3964 192.111 81.7241 185.016C79.1966 180.131 76.0817 179.885 62.8306 183.517ZM87.3605 210.69C86.2319 211.653 82.5796 215.742 79.2446 219.78C74.6088 225.392 73.1889 227.863 73.2139 230.278C73.2629 235.172 77.2204 238.936 82.3155 238.936C86.446 238.936 101.199 221.965 101.199 217.212C101.199 215.863 99.9002 213.488 98.2742 211.863C94.8861 208.477 90.5085 208.007 87.3605 210.69ZM310.727 392.498C310.727 395.269 310.048 396.756 307.969 398.544C305.416 400.738 304.366 400.913 293.76 400.913H282.309V380.67V360.428L296.518 374.626C309.641 387.739 310.727 389.105 310.727 392.498ZM152.886 428.55C160.186 432.012 163.936 441.229 161.297 449.221C160.651 451.175 158.383 454.346 156.255 456.266C144.498 466.879 125.693 456.159 128.629 440.52C130.654 429.735 142.772 423.755 152.886 428.55ZM113.742 456.655C114.894 459.684 117.78 463.639 121.708 467.572C127.059 472.93 128.823 474.03 135.156 475.952C151.925 481.042 168.659 473.595 176.03 457.763L178.746 451.927L190.754 451.917L202.761 451.907L206.894 456.703C209.233 459.417 213.794 462.997 217.401 464.951L223.774 468.404L248.539 468.731L273.304 469.058L273.282 471.73C273.227 478.46 266.394 488.133 258.795 492.238L254.793 494.4H145.226H35.659L31.6566 492.238C26.9137 489.676 22.0817 484.755 19.5442 479.902C18.1453 477.227 17.623 473.517 17.3278 464.154L16.9416 451.906H64.4376H111.934L113.742 456.655Z" fill="url(#paint0_linear_202_25)"/>
<defs>
<linearGradient id="paint0_linear_202_25" x1="1.19398e-05" y1="255.964" x2="512.313" y2="255.964" gradientUnits="userSpaceOnUse">
<stop stop-color="#AA367C"/>
<stop offset="1" stop-color="#4A2FBD"/>
</linearGradient>
</defs>
</svg>
