<svg width="497" height="496" viewBox="0 0 497 496" fill="none" xmlns="http://www.w3.org/2000/svg">
<path fill-rule="evenodd" clip-rule="evenodd" d="M39.1085 0.661C39.1085 1.834 44.0785 41.388 44.6485 44.75L45.1995 48H33.0195C26.3215 48 18.9885 48.547 16.7245 49.216C11.2315 50.839 2.9475 59.123 1.3245 64.616C-0.4415 70.594 -0.4415 425.406 1.3245 431.384C2.9475 436.877 11.2315 445.161 16.7245 446.784C19.8865 447.718 60.8555 448 193.475 448C357.227 448 366.107 448.09 366.095 449.75C366.088 450.712 364.519 460.725 362.608 472C360.697 483.275 359.128 493.288 359.121 494.25C359.109 495.895 362.294 496 412.108 496C461.922 496 465.107 495.895 465.095 494.25C465.088 493.288 463.519 483.275 461.608 472C459.697 460.725 458.128 450.712 458.121 449.75C458.11 448.217 459.181 448 466.742 448C471.491 448 477.228 447.453 479.492 446.784C484.985 445.161 493.269 436.877 494.892 431.384C496.634 425.487 496.661 70.576 494.919 64.764C494.265 62.582 491.786 58.633 489.408 55.988C481.598 47.301 497.516 48 307.385 48H139.018L139.569 44.75C140.139 41.388 145.109 1.834 145.109 0.661C145.109 0.298 121.258 0 92.1085 0C62.9585 0 39.1085 0.298 39.1085 0.661ZM126.642 19.25C126.107 22.373 113.108 126.277 113.108 127.435C113.108 127.746 103.658 128 92.1085 128C80.5585 128 71.1085 127.746 71.1085 127.435C71.1085 126.277 58.1105 22.373 57.5755 19.25L57.0175 16H92.1085H127.2L126.642 19.25ZM47.4205 67.75C47.7315 69.813 49.6685 85.105 51.7235 101.733L55.4595 131.965L50.0335 137.87L44.6085 143.774L30.3585 143.887L16.1085 144V106.455V68.909L18.5635 66.455C20.9155 64.102 21.5535 64 33.9355 64H46.8525L47.4205 67.75ZM240.109 104V144H188.188H136.267L132.365 138.499L128.462 132.998L132.76 99.249C135.124 80.687 137.071 65.162 137.084 64.75C137.098 64.338 160.284 64 188.609 64H240.109V104ZM477.654 66.455L480.108 68.909V106.455V144H368.108H256.108V104V64H365.654H475.199L477.654 66.455ZM272.108 104V112H312.108H352.108V104V96H312.108H272.108V104ZM368.108 104V112H376.108H384.108V104V96H376.108H368.108V104ZM400.108 104V112H408.108H416.108V104V96H408.108H400.108V104ZM432.108 104V112H440.108H448.108V104V96H440.108H432.108V104ZM119.996 148.645C125.352 156.731 127.33 163.412 127.873 175.255C128.529 189.581 127.286 193.939 120.663 200.534C114.973 206.2 110.413 208 101.743 208H96.1085V237.545V267.091L93.6535 269.545C92.1065 271.093 90.0565 272 88.1085 272C86.1605 272 84.1105 271.093 82.5635 269.545L80.1085 267.091V229.545V192H72.2195H64.3315L63.6805 195.471C62.8625 199.826 58.7005 204.855 54.4375 206.636C47.9635 209.341 48.1085 209.683 48.1085 191.71C48.1085 168.489 50.8605 159.603 61.3545 148.942L66.2195 144H91.5695H116.92L119.996 148.645ZM33.8935 167.25C32.3265 173.357 32.0785 177.602 32.3205 194.18C32.6355 215.738 32.8285 216.47 39.5015 221.438C43.0785 224.102 54.9145 224.241 59.8085 221.677C61.5695 220.755 63.2565 220 63.5585 220C63.8615 220 64.1085 228.06 64.1085 237.912V255.823L53.1785 256.162C41.3675 256.527 39.1415 257.396 34.6705 263.385C32.6475 266.094 32.6085 267.168 32.6085 320C32.6085 372.832 32.6475 373.906 34.6705 376.615C35.8045 378.134 37.9745 380.304 39.4935 381.438C42.2025 383.461 43.2765 383.5 96.1085 383.5C148.94 383.5 150.015 383.461 152.724 381.438C154.243 380.304 156.413 378.135 157.547 376.617C159.491 374.016 159.626 372.317 159.905 346.975L160.2 320.091L187.084 319.796C212.426 319.517 214.125 319.382 216.726 317.438C218.244 316.304 220.413 314.134 221.547 312.615C223.545 309.94 223.609 308.672 223.609 272C223.609 235.328 223.545 234.06 221.547 231.385C220.413 229.866 218.243 227.696 216.724 226.562C214.049 224.564 212.781 224.5 176.109 224.5C139.437 224.5 138.168 224.564 135.493 226.562C129.504 231.033 128.636 233.259 128.271 245.07L127.931 256H120.021H112.108V239.5C112.108 226.221 112.375 223 113.474 223C114.225 223 117.997 221.42 121.856 219.49C130.401 215.215 136.187 209.195 140.398 200.196C143.199 194.21 143.557 192.361 143.915 182.016C144.135 175.682 143.88 168.137 143.348 165.25L142.382 160H191.245H240.109V296V432H130.564H21.0175L18.5635 429.545L16.1085 427.091V293.545V160H25.9315H35.7545L33.8935 167.25ZM480.108 293.545V427.091L477.654 429.545C475.376 431.824 474.482 432 465.221 432C456.577 432 455.175 431.766 454.738 430.25C454.46 429.287 453.019 420.85 451.536 411.5L448.84 394.5L453.378 387.815C461.686 375.575 464.621 363.828 463.923 345.604C463.544 335.688 463.145 333.675 460.387 327.783C456.186 318.805 450.395 312.782 441.856 308.51C437.997 306.58 434.225 305 433.474 305C432.361 305 432.108 300.906 432.108 282.866C432.108 268.658 431.682 259.311 430.919 256.764C430.265 254.582 427.786 250.633 425.408 247.988C418.916 240.767 410.271 238.395 400.724 241.216C395.231 242.839 386.947 251.123 385.324 256.616C384.52 259.339 384.108 268.733 384.108 284.366C384.108 297.365 383.862 308 383.559 308C383.257 308 381.57 307.245 379.809 306.323C374.915 303.759 363.078 303.898 359.501 306.562C352.855 311.51 352.637 312.32 352.301 333.359C351.941 355.84 353.095 363.277 358.705 374.63C360.902 379.077 364.94 384.815 368.823 389.01L375.286 395.99L372.624 412.245C371.16 421.185 369.74 429.287 369.468 430.25C369.004 431.89 365.432 432 312.542 432H256.108V296V160H368.108H480.108V293.545ZM361.608 193.396C357.923 195.053 354.591 198.577 353.175 202.315C352.482 204.144 352.108 219.643 352.108 246.565V288H360.108H368.108V248V208H408.108H448.108V248V288H456.139H464.171L463.889 245.072C463.617 203.503 463.543 202.057 461.546 199.384C460.412 197.866 458.242 195.696 456.724 194.562C454.044 192.56 452.667 192.493 409.286 192.273C373.562 192.092 364.007 192.317 361.608 193.396ZM272.108 232V240H296.108H320.108V232V224H296.108H272.108V232ZM208.109 272V304H176.109H144.109V272V240H176.109H208.109V272ZM272.108 264V272H304.108H336.108V264V256H304.108H272.108V264ZM413.654 258.455L416.108 260.909V290.455V320H421.742C430.412 320 434.973 321.8 440.663 327.466C447.286 334.061 448.53 338.419 447.874 352.745C447.331 364.588 445.352 371.269 439.996 379.355L436.921 384H411.569H386.219L381.354 379.058C370.86 368.397 368.108 359.511 368.108 336.29C368.108 318.317 367.964 318.659 374.438 321.364C378.701 323.145 382.862 328.174 383.68 332.529L384.331 336H392.219H400.108V298.455V260.909L402.563 258.455C404.11 256.907 406.16 256 408.108 256C410.056 256 412.107 256.907 413.654 258.455ZM67.1225 275.034C69.9065 281.756 80.0135 288 88.1085 288C96.2035 288 106.31 281.756 109.094 275.034L110.351 272H119.229H128.109V289.532C128.109 302.077 128.497 307.993 129.473 310.329C131.254 314.592 136.283 318.754 140.638 319.572L144.109 320.223V344.111V368H96.1085H48.1085V320V272H56.9875H65.8655L67.1225 275.034ZM281.559 305.407C277.543 307.156 273.335 312.262 272.598 316.279C272.273 318.051 272.142 335.33 272.307 354.678C272.596 388.401 272.694 389.971 274.671 392.616C275.805 394.134 277.974 396.304 279.492 397.438C282.137 399.415 283.698 399.512 317.18 399.787L352.108 400.074V392.037V384H320.108H288.108V352V320H312.108H336.108V312V304L310.358 304.039C291.218 304.068 283.826 304.419 281.559 305.407ZM176.109 344V352H200.109H224.109V344V336H200.109H176.109V344ZM192.109 376V384H208.109H224.109V376V368H208.109H192.109V376ZM433.586 402.25C434.51 406.282 446.108 476.855 446.108 478.45C446.108 479.82 442.153 480 412.108 480C382.063 480 378.108 479.82 378.108 478.45C378.108 476.855 389.706 406.282 390.63 402.25C391.145 400.005 391.189 400 412.108 400C433.027 400 433.071 400.005 433.586 402.25Z" fill="url(#paint0_linear_212_21)"/>
<defs>
<linearGradient id="paint0_linear_212_21" x1="0" y1="248" x2="496" y2="248.002" gradientUnits="userSpaceOnUse">
<stop stop-color="#AA367C"/>
<stop offset="1" stop-color="#4A2FBD"/>
</linearGradient>
</defs>
</svg>
