<svg width="512" height="512" viewBox="0 0 512 512" fill="none" xmlns="http://www.w3.org/2000/svg">
<path fill-rule="evenodd" clip-rule="evenodd" d="M151.176 1.32169C146.027 2.97206 137.244 12.2192 135.665 17.6536C134.963 20.0689 134.389 25.8169 134.389 30.4277V38.8097L109.207 64.4912C86.6827 87.464 84.0261 90.5386 84.0261 93.6388C84.0261 95.9058 84.9263 98.0202 86.6282 99.7506L89.2313 102.397L183.419 102.103L277.608 101.808L284.219 98.1632C291.563 94.1146 294.725 90.7925 298.912 82.7199C301.736 77.2791 301.74 77.2365 302.084 50.135C302.481 18.7546 302.058 16.1665 295.28 8.50138C287.436 -0.369215 290.007 -0.0886441 217.878 0.0361737C175.134 0.109784 153.667 0.523709 151.176 1.32169ZM282.954 19.6678L285.581 22.3391L285.267 48.3961C284.921 77.053 284.915 77.0839 277.729 82.5396C274.869 84.7106 273.783 84.7426 193.874 85.0253L112.915 85.3123L132.046 65.7575L151.176 46.2027V34.2181C151.176 22.9162 151.323 22.0841 153.752 19.6155L156.327 16.9964H218.327H280.327L282.954 19.6678ZM170.54 45.2191C168.916 46.8695 167.964 49.0565 167.964 51.1346C167.964 53.2128 168.916 55.3998 170.54 57.0501C173.094 59.6478 173.277 59.6692 193.145 59.6692C213.014 59.6692 213.197 59.6478 215.751 57.0501C217.375 55.3998 218.327 53.2128 218.327 51.1346C218.327 49.0565 217.375 46.8695 215.751 45.2191C213.197 42.6214 213.014 42.6001 193.145 42.6001C173.277 42.6001 173.094 42.6214 170.54 45.2191ZM237.69 45.2191C236.066 46.8695 235.114 49.0565 235.114 51.1346C235.114 53.2128 236.066 55.3998 237.69 57.0501C240.115 59.5155 240.946 59.6692 251.902 59.6692C262.858 59.6692 263.689 59.5155 266.114 57.0501C267.738 55.3998 268.69 53.2128 268.69 51.1346C268.69 49.0565 267.738 46.8695 266.114 45.2191C263.689 42.7537 262.858 42.6001 251.902 42.6001C240.946 42.6001 240.115 42.7537 237.69 45.2191ZM357.908 104.05C346.346 107.209 334.8 117.607 330.429 128.797C328.563 133.574 328.044 137.055 328.013 145.015C327.97 155.922 329.505 160.962 335.627 170.009C339.298 175.435 349.133 182.777 355.698 184.995L360.863 186.739L361.205 213.616L361.546 240.495L364.867 247.621C369.362 257.268 375.423 263.67 384.369 268.221C388.418 270.28 392.375 271.966 393.163 271.966C394.273 271.966 394.596 274.232 394.596 282.009V292.053L385.733 296.415C373.67 302.352 364.681 311.456 358.998 323.495C353.51 335.124 352.628 341.022 352.628 366.09C352.628 387.165 352.641 387.293 355.203 389.897C358.328 393.075 362.963 393.317 366.413 390.48C368.856 388.472 368.898 388.098 369.415 364.076L369.94 339.709L373.261 332.583C377.881 322.664 383.829 316.487 393.379 311.689L401.307 307.704H428.172H455.036L462.964 311.689C472.514 316.487 478.462 322.664 483.083 332.583L486.404 339.709L486.928 406.747L487.453 473.784L489.93 475.823C493.399 478.678 498.014 478.422 501.184 475.198L503.804 472.535L503.498 405.055L503.191 337.575L500.485 330.513C494.185 314.066 484.847 303.421 470.545 296.382L461.747 292.053V281.476C461.747 272.59 462.009 270.899 463.389 270.899C466.247 270.899 475.871 260.078 477.259 255.307C477.961 252.891 478.534 244.969 478.534 237.702V224.489L483.379 221.876C489.514 218.567 499.462 208.655 503.257 202.071C508.906 192.27 511.25 183.801 511.84 171.065C512.545 155.816 510.991 146.798 505.752 135.735C498.046 119.462 481.603 106.625 464.439 103.482C460.583 102.776 440.217 102.369 410.929 102.412C372.807 102.469 362.533 102.786 357.908 104.05ZM54.9258 121.056C36.5214 126.095 21.7294 141.85 17.9302 160.459C17.1716 164.171 16.8547 175.063 17.0656 190.077C17.3961 213.498 17.4392 213.899 20.228 219.273C24.4889 227.485 27.7258 230.831 35.2277 234.775L42.0498 238.361L42.0529 265.207L42.0571 292.053L33.2594 296.382C18.9574 303.421 9.61929 314.066 3.3187 330.513L0.612747 337.575L0.306373 405.055L0 472.535L2.61991 475.198C5.78962 478.422 10.4052 478.678 13.8739 475.823L16.3511 473.784L16.8757 406.747L17.4003 339.709L20.7211 332.583C25.3419 322.664 31.29 316.487 40.84 311.689L48.7679 307.704H75.6323H102.497L110.425 311.689C119.975 316.487 125.923 322.664 130.543 332.583L133.864 339.709L134.389 364.076C134.906 388.098 134.948 388.472 137.391 390.48C140.885 393.353 145.475 393.076 148.698 389.799L151.372 387.081L150.949 362.329C150.55 339.013 150.372 337.165 147.883 330.513C141.789 314.227 132.347 303.441 118.005 296.382L109.207 292.053V282.009C109.207 274.232 109.531 271.966 110.641 271.966C111.429 271.966 115.386 270.28 119.435 268.221C128.381 263.67 134.442 257.268 138.937 247.621L142.258 240.495L142.598 213.712L142.939 186.929L147.844 184.669C155.229 181.266 159.855 176.842 163.842 169.365L167.439 162.617L167.786 143.718L168.133 124.82L165.473 122.115L162.813 119.411L111.615 119.481C71.0283 119.537 59.2801 119.863 54.9258 121.056ZM471.361 123.929C480.908 128.727 486.857 134.907 491.477 144.823C494.695 151.728 494.797 152.395 494.797 166.351C494.797 180.307 494.695 180.974 491.477 187.879C487.129 197.213 480.849 203.995 472.893 207.952C464.781 211.985 457.895 213.291 444.736 213.291C434.607 213.291 434.217 213.201 431.239 210.173L428.172 207.054V191.454C428.172 176.315 428.096 175.778 425.596 173.237L423.021 170.618L394.906 170.612C378.777 170.609 365.126 170.136 362.884 169.502C353.38 166.819 344.234 155.17 344.234 145.748C344.234 135.558 350.076 126.373 359.389 121.917L364.694 119.379L414.064 119.662L463.434 119.944L471.361 123.929ZM151.006 148.14C150.624 160.738 149.713 163.112 143.43 167.885C140.68 169.975 138.807 170.112 105.891 170.618L71.2465 171.152L69.2425 173.67C67.4095 175.975 67.2385 178.138 67.2385 199.101V222.014L55.7705 221.653C43.377 221.263 41.0394 220.335 36.3514 213.944C34.3117 211.165 34.1879 209.578 34.1879 186.273C34.1879 162.113 34.2467 161.429 36.7858 156.216C41.2765 146.998 49.9651 139.785 59.3693 137.472C61.1005 137.047 82.5068 136.65 106.939 136.589L151.362 136.48L151.006 148.14ZM125.995 210.767C125.995 238.177 125.498 240.54 118.162 247.999C110.825 255.458 108.501 255.964 81.5436 255.964H58.8447V247.55V239.136L66.1557 238.715C73.9661 238.266 77.224 236.615 81.338 231.019C83.3137 228.333 83.5298 226.323 83.8278 207.882L84.153 187.687H105.075H125.995V210.767ZM193.145 189.082C187.996 190.732 179.213 199.979 177.634 205.414C175.829 211.625 175.829 300.303 177.634 306.514C179.337 312.374 188.028 321.211 193.792 322.943C196.626 323.794 206.723 324.26 223.17 324.298L248.23 324.356L265.542 345.705C289.309 375.015 289.719 375.447 293.758 375.447C295.922 375.447 298.028 374.517 299.689 372.828C302.265 370.21 302.265 370.207 302.265 347.225C302.265 325.701 302.386 324.24 304.176 324.24C305.228 324.24 308.291 323.477 310.984 322.544C316.919 320.487 324.371 312.559 326.199 306.356C327.954 300.399 327.954 211.529 326.199 205.571C325.512 203.244 322.91 199.031 320.415 196.209C312.713 187.497 314.136 187.671 251.453 187.796C214.832 187.87 195.607 188.293 193.145 189.082ZM411.384 197.965C411.384 211.595 412.733 215.801 419.218 222.395C426.057 229.35 429.637 230.36 447.442 230.36H461.747V240.543C461.747 249.933 461.546 250.93 459.171 253.345L456.596 255.964H428.078C408.756 255.964 398.169 255.545 395.243 254.666C389.479 252.935 380.788 244.097 379.085 238.237C378.256 235.383 377.809 225.77 377.809 210.767V187.687H394.596H411.384V197.965ZM308.083 207.375L310.659 209.993V255.964V301.934L308.083 304.552C305.844 306.83 304.558 307.171 298.232 307.171C292.637 307.171 290.383 307.641 288.479 309.208C286.127 311.141 285.976 312.04 285.477 327.047L284.953 342.851L272.502 327.412C254.13 304.627 259.899 307.171 226.615 307.171H198.296L195.721 304.552L193.145 301.934V255.964V209.993L195.721 207.375L198.296 204.756H251.902H305.508L308.083 207.375ZM212.509 224.445C210.885 226.095 209.933 228.282 209.933 230.36C209.933 232.438 210.885 234.625 212.509 236.276C215.015 238.825 215.505 238.895 230.917 238.895C246.33 238.895 246.82 238.825 249.326 236.276C250.95 234.625 251.902 232.438 251.902 230.36C251.902 228.282 250.95 226.095 249.326 224.445C246.82 221.895 246.33 221.826 230.917 221.826C215.505 221.826 215.015 221.895 212.509 224.445ZM262.872 241.514C261.247 243.164 260.296 245.351 260.296 247.429C260.296 249.507 261.247 251.694 262.872 253.345C265.296 255.81 266.127 255.964 277.083 255.964C288.039 255.964 288.87 255.81 291.295 253.345C292.919 251.694 293.871 249.507 293.871 247.429C293.871 245.351 292.919 243.164 291.295 241.514C288.87 239.048 288.039 238.895 277.083 238.895C266.127 238.895 265.296 239.048 262.872 241.514ZM92.4199 281.567V290.102H75.6323H58.8447V281.567V273.033H75.6323H92.4199V281.567ZM212.509 275.652C210.885 277.302 209.933 279.489 209.933 281.567C209.933 283.645 210.885 285.832 212.509 287.483L215.084 290.102H247.705H280.327L282.901 287.483C284.526 285.832 285.477 283.645 285.477 281.567C285.477 279.489 284.526 277.302 282.901 275.652L280.327 273.033H247.705H215.084L212.509 275.652ZM444.959 281.567V290.102H428.172H411.384V281.567V273.033H428.172H444.959V281.567ZM44.5794 352.516L41.9522 355.188L42.267 400.314L42.5817 445.44L46.5006 453.499C51.22 463.206 57.2981 469.255 67.0496 473.952L74.0585 477.328H251.957H429.855L437.783 473.344C447.333 468.545 453.281 462.368 457.901 452.45L461.222 445.324L461.537 400.256L461.852 355.188L459.225 352.516C455.764 348.998 450.964 348.975 447.535 352.463L444.959 355.081V396.879C444.959 426.577 444.59 439.946 443.683 443.066C441.981 448.927 433.289 457.764 427.525 459.495C424.438 460.423 410.754 460.793 379.523 460.793H335.84V443.724V426.655H371.036H406.233L408.808 424.036L411.384 421.418V388.249V355.081L408.808 352.463C407.185 350.811 405.034 349.844 402.99 349.844C400.946 349.844 398.795 350.811 397.172 352.463L394.596 355.081V382.291V409.501L348.693 409.81L302.789 410.119L296.928 412.914C282.006 420.029 273.994 437.256 278.592 452.338C279.563 455.522 280.604 458.726 280.906 459.459C281.338 460.508 275.138 460.793 251.902 460.793C228.666 460.793 222.466 460.508 222.898 459.459C227.325 448.714 227.577 439.343 223.679 430.384C220.12 422.203 215.681 417.438 208.062 413.623L201.064 410.119L155.135 409.81L109.207 409.501V382.291V355.081L106.632 352.463C105.008 350.811 102.858 349.844 100.814 349.844C98.7698 349.844 96.6189 350.811 94.9957 352.463L92.4199 355.081V388.249V421.418L94.9957 424.036L97.5705 426.655H132.768H167.964V443.724V460.793H124.281C93.0505 460.793 79.3665 460.423 76.2786 459.495C70.5152 457.764 61.8235 448.927 60.1206 443.066C59.214 439.946 58.8447 426.577 58.8447 396.879V355.081L56.2689 352.463C52.84 348.975 48.0398 348.998 44.5794 352.516ZM202.228 429.421C207.689 433.566 209.408 436.991 209.408 443.724C209.408 454.344 203.653 459.948 192.063 460.614L184.752 461.034V443.724V426.413L192.063 426.834C197.297 427.135 200.185 427.87 202.228 429.421ZM319.052 443.724V460.793H313.248C306.08 460.793 301.439 458.904 297.798 454.506C292.718 448.366 292.716 439.083 297.795 432.946C301.495 428.476 305.705 426.747 313.019 426.696L319.052 426.655V443.724ZM44.633 497.55C43.0088 499.2 42.0571 501.387 42.0571 503.465C42.0571 505.544 43.0088 507.731 44.633 509.381L47.2078 512H251.902H456.596L459.171 509.381C462.579 505.917 462.579 501.014 459.171 497.55L456.596 494.931H251.902H47.2078L44.633 497.55Z" fill="url(#paint0_linear_205_28)"/>
<defs>
<linearGradient id="paint0_linear_205_28" x1="-3.96674e-10" y1="256.036" x2="512.022" y2="256.098" gradientUnits="userSpaceOnUse">
<stop stop-color="#AA367C"/>
<stop offset="1" stop-color="#4A2FBD"/>
</linearGradient>
</defs>
</svg>
