<svg width="500" height="500" viewBox="0 0 500 500" fill="none" xmlns="http://www.w3.org/2000/svg">
<path fill-rule="evenodd" clip-rule="evenodd" d="M62.5884 1.61269C36.2439 8.69651 19.831 36.0692 26.5237 61.7616C28.3687 68.8454 31.4004 75.0907 35.5604 80.3764L38.5838 84.2184L32.5235 88.3332C14.3594 100.668 2.04295 122.039 0.341656 144.175C-0.306357 152.601 -0.235514 152.997 2.37321 155.607L5.07674 158.31H74.9736H144.87L147.574 155.607C150.183 152.998 150.254 152.599 149.608 144.193C147.909 122.104 135.54 100.635 117.424 88.3332L111.363 84.2184L114.543 80.2056C122.448 70.2237 126.222 55.5945 124.223 42.677C119.722 13.6031 90.4707 -5.88574 62.5884 1.61269ZM317.197 0.612625C243.335 8.54025 184.151 62.6919 169.582 135.675C166.237 152.43 166.237 180.857 169.582 197.613C175.172 225.611 187.983 252.467 205.729 273.383L211.716 280.441L197.26 294.77C186.235 305.696 83.9531 405.889 6.31546 481.813L0.68754 487.317L5.6987 493.183C8.45536 496.408 11.311 498.91 12.0444 498.743C12.7789 498.575 57.0991 455.544 110.534 403.118C163.969 350.693 211.361 304.341 215.848 300.113L224.007 292.428L229.971 297.106C251.333 313.862 275.719 325.073 302.374 330.394C317.794 333.471 347.566 333.707 361.996 330.868C397.85 323.809 426.867 308.612 451.138 284.18C475.394 259.764 490.809 230.276 497.606 195.292C500.42 180.811 500.171 151.017 497.108 135.675C483.637 68.1871 432.196 16.5054 365.121 3.07008C354.913 1.02515 326.788 -0.416612 317.197 0.612625ZM88.5496 19.6223C96.1788 23.235 100.665 27.6374 104.358 35.14C112.804 52.2943 105.915 71.9404 88.6069 80.0535C83.8301 82.2932 81.2943 82.7787 74.4527 82.7631C67.4194 82.7464 65.2701 82.2995 60.6829 79.8993C53.4725 76.1251 48.2155 70.7018 44.8858 63.6013C41.129 55.5924 41.0936 43.5947 44.8024 35.9057C49.0979 27.003 57.5596 20.0525 67.1599 17.5409C72.5003 16.1439 83.4561 17.2096 88.5496 19.6223ZM350.535 17.718C391.3 22.3558 428.227 43.6593 453.239 76.9658C466.476 94.592 475.483 114.545 480.469 137.285C483.448 150.871 483.693 180.435 480.936 193.729C472.963 232.185 453.226 263.859 423.174 286.42C405.406 299.76 385.523 308.75 362.707 313.758C348.084 316.969 318.417 316.979 303.984 313.78C272.99 306.91 249.116 293.995 227.55 272.43C200.191 245.074 185.593 212.095 183.721 173.415C181.307 123.549 204.044 75.9011 244.498 46.0512C275.142 23.4402 312.678 13.4104 350.535 17.718ZM318.76 33.9503C297.116 36.7057 276.391 44.4479 258.334 56.5248C248.295 63.2398 229.933 81.6005 223.218 91.6387C213.298 106.468 206.275 123.06 202.494 140.6C199.851 152.858 199.824 180.315 202.445 192.446C214.045 246.169 253.814 285.934 307.542 297.534C319.674 300.154 347.132 300.128 359.391 297.485C386.155 291.716 407.904 279.872 427.244 260.535C446.583 241.197 458.428 219.45 464.197 192.687C466.866 180.306 466.866 152.981 464.197 140.6C458.428 113.838 446.583 92.0908 427.244 72.753C408.266 53.7767 387.427 42.2321 361.475 36.3161C352.777 34.3337 326.977 32.9044 318.76 33.9503ZM351.056 51.4849C375.581 55.208 397.789 66.514 415.637 84.359C451.032 119.751 459.957 172.596 438.069 217.168C434.974 223.471 430.453 231.392 428.021 234.771L423.6 240.915L420.846 232.167C413.731 209.58 399.807 191.558 380.325 179.725L373.963 175.86L378.549 169.95C387.795 158.034 391.136 148.308 391.136 133.308C391.136 116.466 386.03 103.999 374.269 92.1231C351.776 69.409 315.14 69.4861 292.329 92.295C271.148 113.473 269.392 146.154 288.152 170.036L292.862 176.032L289.489 177.849C281.255 182.284 268.876 192.757 262.502 200.682C254.677 210.406 249.714 219.786 245.824 232.195L243.073 240.972L238.322 234.279C202.226 183.418 212.651 112.802 261.87 74.7656C287.466 54.9861 319.333 46.6668 351.056 51.4849ZM350.461 95.6181C359.862 100.017 365.944 105.999 370.606 115.432C374.283 122.87 374.497 123.854 374.497 133.308C374.497 142.762 374.283 143.746 370.606 151.184C365.92 160.666 359.888 166.572 350.202 171.16C343.908 174.141 342.296 174.457 333.345 174.457C324.395 174.457 322.782 174.141 316.489 171.16C306.803 166.572 300.771 160.666 296.085 151.184C292.412 143.755 292.193 142.754 292.193 133.362C292.193 124.351 292.505 122.754 295.491 116.453C299.677 107.617 305.637 101.149 313.411 97.0057C321.618 92.6325 326.108 91.6428 335.688 92.0991C341.941 92.397 345.272 93.1898 350.461 95.6181ZM63.4927 98.411C71.521 100.557 81.9819 100.161 90.7093 97.3807L96.5477 95.5212L103.137 99.0329C112.852 104.21 122.007 113.879 127.015 124.247C129.284 128.944 131.455 134.779 131.839 137.215L132.541 141.642H74.9736H17.4067L18.0724 137.215C19.2559 129.337 26.6404 115.966 33.6852 108.949C40.6185 102.042 51.319 95.5348 54.6581 96.1942C55.8041 96.4202 59.7797 97.4182 63.4927 98.411ZM62.5884 176.625C36.2439 183.709 19.831 211.081 26.5237 236.774C28.3687 243.857 31.4004 250.103 35.5604 255.388L38.5838 259.23L32.5235 263.345C14.3594 275.68 2.04295 297.051 0.341656 319.187C-0.306357 327.613 -0.235514 328.009 2.37321 330.619L5.07674 333.322H74.9736H144.87L147.574 330.619C150.183 328.01 150.254 327.611 149.608 319.205C147.909 297.116 135.54 275.647 117.424 263.345L111.363 259.23L114.543 255.218C122.448 245.236 126.222 230.607 124.223 217.689C119.722 188.615 90.4707 169.126 62.5884 176.625ZM316.805 189.191C323.612 191.75 341.34 191.705 349.843 189.11C356.168 187.179 356.646 187.17 361.303 188.889C383.361 197.03 403.886 222.118 406.867 244.581L407.584 249.983H333.345H259.107L259.824 244.581C262.669 223.139 280.864 199.853 302.436 190.046C308.943 187.089 310.899 186.972 316.805 189.191ZM88.5496 194.634C96.1788 198.247 100.665 202.649 104.358 210.152C112.804 227.306 105.915 246.952 88.6069 255.066C83.8301 257.305 81.2943 257.791 74.4527 257.775C67.4194 257.758 65.2701 257.311 60.6829 254.911C53.4725 251.137 48.2155 245.714 44.8858 238.613C41.129 230.604 41.0936 218.607 44.8024 210.918C49.0979 202.015 57.5596 195.065 67.1599 192.553C72.5003 191.156 83.4561 192.222 88.5496 194.634ZM383.874 271.361C368.126 278.973 349.762 283.318 333.345 283.318C316.928 283.318 298.565 278.973 282.817 271.361L273.441 266.83H333.345H393.25L383.874 271.361ZM63.4927 273.423C71.521 275.569 81.9819 275.173 90.7093 272.393L96.5477 270.533L103.137 274.045C116.488 281.161 129.882 298.955 131.875 312.227L132.541 316.654H74.9736H17.4067L18.0724 312.227C19.2559 304.349 26.6404 290.978 33.6852 283.961C40.6185 277.055 51.319 270.547 54.6581 271.206C55.8041 271.432 59.7797 272.43 63.4927 273.423ZM245.949 343.303C219.605 350.387 203.192 377.759 209.884 403.452C211.729 410.536 214.761 416.781 218.921 422.067L221.944 425.908L215.884 430.023C197.72 442.359 185.404 463.729 183.702 485.865C183.054 494.291 183.125 494.687 185.734 497.297L188.437 500H258.334H328.231L330.935 497.297C333.543 494.688 333.614 494.289 332.968 485.883C331.27 463.794 318.901 442.325 300.784 430.023L294.724 425.908L297.904 421.896C305.809 411.914 309.582 397.285 307.583 384.367C303.083 355.293 273.831 335.804 245.949 343.303ZM412.641 343.303C386.296 350.387 369.883 377.759 376.576 403.452C378.421 410.536 381.453 416.781 385.613 422.067L388.636 425.908L382.576 430.023C364.411 442.359 352.095 463.729 350.394 485.865C349.746 494.291 349.817 494.687 352.425 497.297L355.129 500H425.026H494.923L497.626 497.297C500.235 494.688 500.306 494.289 499.66 485.883C497.962 463.794 485.592 442.325 467.476 430.023L461.415 425.908L464.595 421.896C472.5 411.914 476.274 397.285 474.275 384.367C469.774 355.293 440.523 335.804 412.641 343.303ZM271.91 361.312C279.539 364.925 284.026 369.328 287.719 376.83C296.165 393.984 289.275 413.631 271.968 421.744C267.191 423.983 264.655 424.469 257.813 424.453C250.78 424.436 248.631 423.99 244.044 421.589C236.833 417.815 231.576 412.392 228.246 405.291C224.49 397.283 224.454 385.285 228.163 377.596C232.459 368.693 240.92 361.743 250.521 359.231C255.861 357.834 266.817 358.9 271.91 361.312ZM438.602 361.312C446.231 364.925 450.717 369.328 454.41 376.83C462.856 393.984 455.967 413.631 438.659 421.744C433.882 423.983 431.346 424.469 424.505 424.453C417.471 424.436 415.322 423.99 410.735 421.589C403.525 417.815 398.268 412.392 394.938 405.291C391.181 397.283 391.146 385.285 394.855 377.596C399.15 368.693 407.612 361.743 417.212 359.231C422.552 357.834 433.508 358.9 438.602 361.312ZM246.853 440.101C254.882 442.247 265.343 441.851 274.07 439.071L279.908 437.211L286.572 440.739C299.803 447.744 313.243 465.639 315.235 478.905L315.901 483.332H258.334H200.767L201.433 478.905C202.617 471.027 210.001 457.656 217.046 450.639C223.979 443.733 234.68 437.225 238.019 437.884C239.165 438.11 243.14 439.108 246.853 440.101ZM413.545 440.101C421.573 442.247 432.034 441.851 440.761 439.071L446.6 437.211L453.263 440.739C466.494 447.744 479.935 465.639 481.927 478.905L482.593 483.332H425.026H367.459L368.125 478.905C369.308 471.027 376.692 457.656 383.737 450.639C390.671 443.733 401.371 437.225 404.71 437.884C405.856 438.11 409.832 439.108 413.545 440.101Z" fill="url(#paint0_linear_205_26)"/>
<defs>
<linearGradient id="paint0_linear_205_26" x1="0" y1="250.017" x2="500.075" y2="250.017" gradientUnits="userSpaceOnUse">
<stop stop-color="#AA367C"/>
<stop offset="1" stop-color="#4A2FBD"/>
</linearGradient>
</defs>
</svg>
