<svg width="512" height="512" viewBox="0 0 512 512" fill="none" xmlns="http://www.w3.org/2000/svg">
<path fill-rule="evenodd" clip-rule="evenodd" d="M73.3608 1.42727C64.0377 3.68749 56.7382 7.90487 49.347 15.2992C29.215 35.4384 29.2833 66.6109 49.5028 86.8398C79.089 116.437 128.576 100.29 135.655 58.7279C141.642 23.5792 108.338 -7.05551 73.3608 1.42727ZM99.8215 20.0843C106.458 23.2985 113.001 29.8508 116.327 36.6123C120.064 44.2093 120.038 57.7109 116.27 65.3976C112.936 72.2007 106.538 78.6014 99.7373 81.9373C92.0794 85.6937 78.594 85.6937 70.9361 81.9373C51.9498 72.6243 45.5602 49.6497 57.0849 32.1302C61.0701 26.071 68.295 20.5197 75.092 18.2914C81.6086 16.1561 93.4885 17.0173 99.8215 20.0843ZM156.225 19.4621C154.574 21.113 153.606 23.3006 153.606 25.3795C153.606 27.4583 154.574 29.6459 156.225 31.2968L158.843 33.9167H318.365H477.886V221.735V409.554H326.898H175.91L173.292 412.173C169.823 415.643 169.828 420.543 173.302 424.019L175.93 426.648L341.803 426.371C526.065 426.063 510.374 426.754 511.649 418.895C512.167 415.706 511.804 414.576 509.528 412.299C507.24 410.01 505.8 409.554 500.868 409.554H494.953V221.735V33.9167H500.868C505.727 33.9167 507.252 33.4482 509.401 31.2968C512.866 27.8318 512.866 22.9271 509.401 19.4621L506.784 16.8423H332.813H158.843L156.225 19.4621ZM393.082 60.4663C383.591 62.9752 375.217 69.854 370.472 79.039C366.354 87.0138 366.27 99.0971 370.276 107.642C380.331 129.094 408.472 134.236 425.048 117.653C431.456 111.241 434.67 103.233 434.67 93.6771C434.67 79.9044 427.518 68.6375 415.191 62.9922C408.994 60.1547 398.708 58.9797 393.082 60.4663ZM407.834 78.0583C418.793 82.6395 421.465 97.014 412.942 105.542C406.022 112.463 396.143 112.463 389.223 105.542C376.032 92.3442 390.587 70.8497 407.834 78.0583ZM38.9349 121.555C25.4581 126.176 14.119 136.939 6.82374 152.034C0.147205 165.847 0.038402 167.246 0.0288016 238.809L0.0213347 303.372L2.54197 308.708C6.90054 317.931 16.0508 324.11 25.4186 324.158C29.8892 324.18 30.0183 324.275 29.4305 327.116C28.128 333.419 0 503.513 0 505.088C0 506.008 1.17871 507.939 2.61877 509.38C5.75596 512.52 10.5007 512.808 13.8864 510.064C16.0785 508.288 17.717 499.497 33.724 403.616L51.1711 299.104L51.1871 245.965L51.202 192.825L48.5833 190.206C46.9331 188.554 44.7463 187.586 42.6684 187.586C40.5904 187.586 38.4037 188.554 36.7535 190.206L34.1347 192.825V247.347V301.868L31.5159 304.487C28.0363 307.969 23.1497 307.953 19.6477 304.45L16.9905 301.792L17.2956 235.352L17.6007 168.911L21.5155 160.709C25.9776 151.362 32.3373 143.914 39.4064 139.756L44.2684 136.897L173.106 136.613L301.942 136.33L304.577 138.966C308.058 142.448 308.064 147.345 304.593 150.818L301.976 153.437H221.875H141.775L139.157 156.057L136.539 158.676V332.719V506.761L139.283 509.507C141.571 511.795 142.683 512.149 145.95 511.625C148.108 511.281 150.712 509.969 151.739 508.713C153.499 506.559 153.606 496.85 153.606 338.497V170.566L229.609 170.273C305.167 169.98 305.637 169.964 309.879 167.675C329.263 157.211 328.658 131.218 308.812 121.832L303.479 119.31L174.407 119.335C46.9683 119.36 45.2541 119.388 38.9349 121.555ZM396.548 146.234C395.589 146.968 386.617 157.832 376.609 170.377C356.839 195.162 355.954 196.96 361.033 202.041C363.9 204.91 368.65 205.494 371.483 203.327C372.441 202.594 377.634 196.47 383.022 189.721L392.818 177.448L392.252 196.657C391.405 225.433 387.284 243.634 376.53 266.09C368.264 283.35 359.558 295.434 344.617 310.379C324.838 330.167 304.494 342.725 279.221 350.749C260.167 356.798 253.56 357.537 212.446 358.23L174.748 358.864L172.711 361.383C169.834 364.941 170.113 369.606 173.401 372.895L176.13 375.625L214.203 375.073C253.697 374.501 258.614 374.026 277.175 369C296.321 363.814 318.26 353.38 334.947 341.523C347.845 332.358 366.478 313.698 375.734 300.676C389.474 281.349 401.172 254.685 405.802 232.145C408.272 220.118 409.577 205.948 409.598 190.922L409.616 177.716L419.247 189.855C424.545 196.531 429.944 202.586 431.248 203.311C434.904 205.345 438.262 204.914 441.132 202.041C446.211 196.96 445.326 195.162 425.556 170.377C415.548 157.832 406.576 146.968 405.617 146.234C404.659 145.501 402.619 144.9 401.083 144.9C399.546 144.9 397.506 145.501 396.548 146.234ZM224.62 241.302C222.818 243.105 221.875 245.218 221.875 247.453C221.875 250.336 223.543 252.552 232.745 261.908L243.615 272.958L232.745 284.009C223.543 293.364 221.875 295.581 221.875 298.463C221.875 303.015 225.966 307.107 230.516 307.107C233.397 307.107 235.613 305.439 244.964 296.233L256.01 285.359L267.056 296.233C276.168 305.203 278.668 307.107 281.338 307.107C285.786 307.107 289.019 304.142 289.785 299.36C290.415 295.429 290.199 295.114 279.417 284.153L268.405 272.958L279.417 261.764C290.145 250.858 290.411 250.469 289.788 246.632C288.983 241.667 287.288 239.972 282.326 239.166C278.49 238.543 278.102 238.81 267.177 249.564L255.965 260.602L245.536 250.207C237.208 241.906 234.327 239.686 231.236 239.184C228.022 238.662 226.901 239.021 224.62 241.302ZM88.6243 300.437C86.7586 301.965 81.5776 320.581 60.2381 402.425C45.8813 457.49 34.1347 503.493 34.1347 504.653C34.1347 507.84 38.8719 512 42.5019 512C44.2236 512 46.6493 511.16 47.891 510.132C50.2473 508.185 50.4521 507.446 77.9785 401.666C86.7149 368.098 89.2195 359.749 89.8286 362.182C90.2521 363.878 93.2976 396.961 96.5937 435.699C100.899 486.277 103.017 506.803 104.11 508.515C107.042 513.11 114.873 512.992 117.941 508.309C119.514 505.907 119.014 498.557 111.021 406.647C106.282 352.157 102.404 306.726 102.404 305.691C102.404 304.656 101.225 302.63 99.7853 301.19C96.6748 298.078 91.9012 297.756 88.6243 300.437Z" fill="url(#paint0_linear_204_19)"/>
<defs>
<linearGradient id="paint0_linear_204_19" x1="2.49757e-07" y1="256.116" x2="512.02" y2="256.118" gradientUnits="userSpaceOnUse">
<stop stop-color="#AA367C"/>
<stop offset="1" stop-color="#4A2FBD"/>
</linearGradient>
</defs>
</svg>
