<svg width="485" height="387" viewBox="0 0 485 387" fill="none" xmlns="http://www.w3.org/2000/svg">
<path fill-rule="evenodd" clip-rule="evenodd" d="M26.246 0.904213C16.232 3.31421 6.482 11.3122 2.161 20.6612L0 25.3372V193.337V361.337L2.964 367.187C6.633 374.428 13.781 380.996 21.298 384.033L27 386.337L96.302 386.632C137.173 386.806 168.463 386.53 172.573 385.961C185.421 384.18 194.338 377.972 199.708 367.069L203 360.385L203.295 320.361C203.457 298.348 203.329 279.296 203.01 278.024C202.36 275.429 197.263 272.825 194.334 273.591C193.299 273.861 191.563 275.213 190.476 276.595C188.659 278.905 188.5 280.702 188.5 298.972V318.837H101.5H14.5V174.402C14.5 74.7842 14.83 29.0942 15.564 27.1522C17.076 23.1502 21.344 18.8882 26 16.7332C29.776 14.9852 34.012 14.8812 101.5 14.8812C168.902 14.8812 173.229 14.9872 177 16.7272C181.841 18.9612 184.888 22.1272 186.952 27.0692C188.316 30.3332 188.5 43.3572 188.5 136.746C188.5 213.806 188.195 242.908 187.381 243.41C186.766 243.791 182.326 244.326 177.515 244.6L168.767 245.099L166.271 239.718C161.235 228.863 151.945 222.64 139.826 222.003C129.453 221.458 123.488 223.689 116.42 230.757C100.823 246.354 105.307 271.257 125.469 281.016C132.549 284.442 144.187 284.227 151.714 280.531C158.357 277.269 164.666 270.588 167.085 264.254L168.772 259.837H174.678C191.105 259.837 210.354 252.329 223 240.988C239.058 226.588 246.839 210.125 248.595 186.837C250.222 165.253 254.346 154.511 265.639 142.436C272.953 134.616 280.013 129.91 290.258 126.028C296.557 123.642 298.413 123.447 318.5 123.061L340 122.649L335.75 126.589C330.737 131.237 330.106 135.178 333.814 138.663C337.402 142.033 340.664 141.407 347.232 136.087C350.457 133.474 356.342 128.695 360.309 125.465C367.484 119.625 369.252 116.78 368.053 113.004C367.307 110.652 344.013 88.9622 341.061 87.8702C338.415 86.8922 333.734 88.5312 332.479 90.8762C330.343 94.8672 331.37 97.7422 336.75 102.832L342 107.798L323.5 107.826C313.325 107.842 302.637 108.138 299.75 108.485L294.5 109.116V71.2202C294.5 49.6552 294.919 31.8622 295.473 29.9322C297.105 24.2402 300.722 19.9202 306.062 17.2852L311.125 14.7862L383.562 15.0612L456 15.3372L459.817 17.7102C461.917 19.0152 464.842 21.9072 466.317 24.1372L469 28.1912L469.263 173.514L469.526 318.837H382.013H294.5V232.992C294.5 148.234 294.475 147.124 292.487 145.325C289.859 142.947 284.893 143 282.461 145.431C280.583 147.31 280.533 150.046 280.491 252.848C280.466 311.967 280.84 359.668 281.34 361.365C283.903 370.056 291.107 378.682 299.167 382.711C307.03 386.64 314.007 386.952 387.08 386.638L457 386.337L462 384.04C469.805 380.455 474.097 377.071 477.919 371.488C484.943 361.226 484.559 372.187 484.265 190.755L484 27.3372L481.648 21.5072C478.503 13.7102 470.627 5.83421 462.83 2.68921L457 0.337212L385.012 0.0552139C338.908 -0.124786 311.32 0.139215 308.284 0.790215C297.524 3.09821 288.74 9.71021 283.646 19.3372L281 24.3372L280.711 69.0532L280.422 113.769L273.211 117.534C263.96 122.365 250.417 135.576 244.709 145.337C238.258 156.369 235.468 166.109 234.412 181.281C233.349 196.573 230.948 205.632 225.52 214.837C221.683 221.345 212.565 231.186 206.976 234.853L204 236.805L203.5 131.571L203 26.3372L200.365 20.7172C196.659 12.8132 191.369 7.39021 183.665 3.59721L177.045 0.337212L103.522 0.169212C62.529 0.0752123 28.339 0.401213 26.246 0.904213ZM142.652 236.862C147.295 238.152 153.17 244.563 154.061 249.313C156.604 262.867 142.853 273.139 130.561 266.868C117.931 260.425 119.522 242.155 133.137 237.302C137.871 235.614 138.117 235.603 142.652 236.862ZM188.332 346.255C188.013 358.196 187.885 358.837 185 362.916C183.35 365.25 180.2 368.099 178 369.248C174.049 371.311 173.097 371.337 100.836 371.337H27.672L23.345 368.295C16.023 363.149 14.536 359.324 14.516 345.587L14.5 333.837H101.582H188.663L188.332 346.255ZM469.5 344.188C469.5 358.875 467.22 364.335 459.161 368.953L455 371.337L384.203 371.613C334.021 371.808 312.187 371.561 309.22 370.762C303.812 369.305 297.106 362.684 295.621 357.334C295.01 355.136 294.509 348.95 294.506 343.587L294.5 333.837H382H469.5V344.188ZM88.9 346.221C84.033 348.409 83.104 352.792 86.573 357.202C88.62 359.804 88.804 359.837 101.5 359.837C114.196 359.837 114.38 359.804 116.427 357.202C119.125 353.772 119.043 351.581 116.089 348.143C113.753 345.426 113.335 345.329 102.839 345.082C95.24 344.903 91.073 345.244 88.9 346.221ZM369.815 345.802C365.346 347.689 364.056 354.393 367.5 357.837C369.283 359.62 370.833 359.837 381.777 359.837C396.352 359.837 398.5 358.95 398.5 352.935C398.5 346.528 396.242 345.377 383.148 345.108C377.017 344.982 371.017 345.294 369.815 345.802Z" fill="url(#paint0_linear_202_33)"/>
<defs>
<linearGradient id="paint0_linear_202_33" x1="5.67172e-08" y1="171" x2="483.995" y2="173.807" gradientUnits="userSpaceOnUse">
<stop stop-color="#AA367C"/>
<stop offset="1" stop-color="#4A2FBD"/>
</linearGradient>
</defs>
</svg>
