<svg width="512" height="512" viewBox="0 0 512 512" fill="none" xmlns="http://www.w3.org/2000/svg">
<path fill-rule="evenodd" clip-rule="evenodd" d="M113.251 1.33563C107.544 3.33931 101.923 8.10238 98.4974 13.8356C95.6701 18.5671 95.6389 18.8183 95.1251 41.2213L94.6062 63.8316L85.7836 71.4419C41.8756 109.318 12.8246 160.991 2.632 219.348C-0.60327 237.868 -0.92088 279.781 2.04037 297.41C13.9933 368.58 51.9322 428.039 111.071 468.285C142.623 489.757 177.756 503.452 218.121 510.015C234.405 512.662 277.608 512.662 293.891 510.015C333.189 503.626 367.49 490.452 398.531 469.824C459.145 429.545 497.833 369.69 509.972 297.41C512.863 280.198 512.618 237.806 509.527 220.276C504.597 192.323 498.2 172.833 485.864 148.181C471.883 120.243 455.525 98.6468 430.89 75.6035L416.907 62.5244L416.897 42.218C416.891 29.6363 416.423 20.3869 415.667 17.9033C414.121 12.8277 407.533 5.41141 401.97 2.4835L397.685 0.228599L257.563 0.0468176C137.863 -0.109433 116.831 0.0784763 113.251 1.33563ZM398.86 7.51006C407.207 11.4071 411.698 20.3083 411.698 32.9584V38.5252H256.525H101.353L101.376 30.1C101.408 18.0544 104.572 12.0638 113.289 7.54274C116.082 6.0936 130.758 5.92305 255.849 5.88628C382.635 5.84952 395.62 5.99658 398.86 7.51006ZM129.131 12.5499C126.014 14.2145 123.15 18.8285 123.15 22.1853C123.15 23.3649 123.858 25.677 124.724 27.3252C126.42 30.5524 131.05 33.419 134.567 33.419C140.068 33.419 145.984 27.5979 145.984 22.1853C145.984 18.7254 143.071 14.1696 139.791 12.5009C136.005 10.5748 132.805 10.5891 129.131 12.5499ZM161.956 11.9055C155.06 14.7956 153.204 23.902 158.355 29.573C160.955 32.4366 162.068 32.9084 166.224 32.9084C170.38 32.9084 171.494 32.4366 174.094 29.573C178.211 25.0397 178.279 19.3943 174.268 15.0172C171.191 11.6584 165.797 10.295 161.956 11.9055ZM191.969 12.9492C187.277 15.7648 185.576 21.5675 187.982 26.5552C189.697 30.1122 194.693 33.419 198.35 33.419C203.404 33.419 209.299 27.3722 209.299 22.1853C209.299 16.6757 203.368 10.9465 197.674 10.9557C196.361 10.9578 193.794 11.8544 191.969 12.9492ZM235.65 12.9594C232.374 14.2829 229.02 19.0123 229.02 22.3069C229.02 24.0797 230.204 26.5205 232.048 28.5518L235.077 31.8871H309.351H383.626L386.481 29.0787C390.463 25.1592 390.463 19.2115 386.481 15.2919L383.626 12.4835L310.735 12.2793C270.643 12.1669 236.856 12.4733 235.65 12.9594ZM138.126 18.6835C141.17 21.6788 139.024 27.2915 134.834 27.2915C132.658 27.2915 129.377 24.3279 129.377 22.363C129.377 20.1745 132.468 17.0791 134.654 17.0791C135.666 17.0791 137.228 17.8011 138.126 18.6835ZM169.649 18.3046C170.334 18.9786 170.895 20.8271 170.895 22.411C170.895 25.8975 166.689 28.3965 163.808 26.6226C161.661 25.3011 160.973 20.5289 162.643 18.5497C164.15 16.7625 167.947 16.6298 169.649 18.3046ZM201.441 18.6835C204.485 21.6788 202.338 27.2915 198.148 27.2915C195.973 27.2915 192.692 24.3279 192.692 22.363C192.692 20.1745 195.783 17.0791 197.969 17.0791C198.981 17.0791 200.543 17.8011 201.441 18.6835ZM382.597 21.0936C383.406 22.5816 383.269 23.4578 382.04 24.668C380.592 26.0926 372.573 26.2703 309.837 26.2703C263.173 26.2703 238.582 25.9118 237.255 25.2133C234.967 24.0082 234.674 22.1363 236.493 20.3471C237.437 19.4178 255.099 19.1216 309.632 19.1216C379.6 19.1216 381.553 19.1747 382.597 21.0936ZM410.66 240.731V435.789H256.006H101.353V240.731V45.6739H256.006H410.66V240.731ZM117.402 62.265C117.131 62.9697 117.028 143.509 117.174 241.242L117.441 418.938H256.006H394.572V240.221V61.5032L256.235 61.2438C146.111 61.0375 117.797 61.2458 117.402 62.265ZM388.863 123.799V180.478H256.006H123.15V123.799V67.12H256.006H388.863V123.799ZM94.8688 253.752L94.6062 435.278L87.7557 435.576L80.9043 435.876L74.1047 428.938C40.4276 394.582 17.431 349.326 8.82644 300.474C5.75205 283.02 5.01927 248.052 7.36086 230.519C13.7079 182.977 30.6699 143.207 60.2773 106.441C68.396 96.3592 92.3009 72.2262 94.1692 72.2262C94.7567 72.2262 95.0286 142.786 94.8688 253.752ZM427.179 80.1807C446.712 97.6439 468.243 126.266 480.67 151.289C488.961 167.981 493.989 181.314 498.417 198.35C504.596 222.124 505.633 231.103 505.614 260.646C505.594 290.266 504.199 301.272 497.353 325.835C486.882 363.402 464.926 401.498 437.932 428.938L431.108 435.876L424.257 435.576L417.406 435.278L417.144 253.666C416.979 139.362 417.246 72.1803 417.867 72.3958C418.409 72.5837 422.599 76.0865 427.179 80.1807ZM141.425 88.1392C140.208 91.2581 140.729 115.667 142.04 116.957C143.848 118.736 368.164 118.736 369.972 116.957C371.283 115.667 371.804 91.2581 370.588 88.1392C370.019 86.6799 358.958 86.5236 256.006 86.5236C153.055 86.5236 141.993 86.6799 141.425 88.1392ZM329.7 102.358V112.066L238.621 111.805L147.541 111.544L147.235 103.464C147.067 99.0206 147.169 94.7702 147.462 94.0175C147.901 92.8911 163.923 92.6511 238.848 92.6511H329.7V102.358ZM364.471 102.353V111.544L350.718 111.829L336.966 112.114V102.353V92.5919L350.718 92.8768L364.471 93.1617V102.353ZM169.286 133.775C168.998 134.516 168.891 141.996 169.049 150.396L169.338 165.67H185.945H202.552V149.33V132.99L186.182 132.708C173.379 132.489 169.697 132.722 169.286 133.775ZM215.994 133.775C215.705 134.516 215.598 141.996 215.757 150.396L216.045 165.67H232.653H249.26V149.33V132.99L232.889 132.708C220.086 132.489 216.405 132.722 215.994 133.775ZM262.701 133.775C262.412 134.516 262.305 141.996 262.464 150.396L262.753 165.67H279.36H295.967V149.33V132.99L279.597 132.708C266.794 132.489 263.112 132.722 262.701 133.775ZM309.408 133.775C309.12 134.516 309.013 141.996 309.172 150.396L309.46 165.67H326.067H342.674V149.33V132.99L326.304 132.708C313.501 132.489 309.819 132.722 309.408 133.775ZM196.843 149.33V160.053H185.945H175.047V149.33V138.607H185.945H196.843V149.33ZM243.551 149.33V160.053H232.653H221.754V149.33V138.607H232.653H243.551V149.33ZM290.258 149.33V160.053H279.36H268.462V149.33V138.607H279.36H290.258V149.33ZM336.966 149.33V160.053H326.067H315.169V149.33V138.607H326.067H336.966V149.33ZM388.863 236.646V286.687H256.006H123.15V236.646V186.605H256.006H388.863V236.646ZM143.078 200.086C141.293 201.842 141.293 271.45 143.078 273.207C144.863 274.963 215.61 274.963 217.395 273.207C219.18 271.45 219.18 201.842 217.395 200.086C215.61 198.329 144.863 198.329 143.078 200.086ZM232.341 205.192C230.583 206.922 230.795 209.762 232.738 210.495C235.719 211.621 366.003 211.2 368.173 210.058C369.277 209.476 370.18 208.344 370.18 207.541C370.18 206.738 369.277 205.606 368.173 205.024C365.11 203.411 233.986 203.573 232.341 205.192ZM212.413 235.319C212.413 253.633 212.037 265.266 211.465 264.679C210.944 264.146 207.253 258.195 203.261 251.454C194.514 236.682 193.16 236.093 187.872 244.759L184.478 250.319L180.171 241.185C177.802 236.161 174.982 230.065 173.904 227.639C172.33 224.097 171.49 223.292 169.643 223.554C167.755 223.823 165.614 227.545 157.711 244.306L148.08 264.731L148.07 234.859L148.06 204.988H180.236H212.413V235.319ZM188.881 211.583C179.358 215.659 182.757 230.519 193.211 230.519C198.478 230.519 203.071 226.005 203.071 220.828C203.071 215.796 201.5 213.261 197.313 211.539C193.091 209.804 193.036 209.804 188.881 211.583ZM195.758 217.697C197.904 220.241 196.675 223.841 193.54 224.197C189.781 224.624 187.993 221.529 190.205 218.422C192.024 215.866 193.996 215.609 195.758 217.697ZM232.912 222.431C230.298 223.929 230.615 227.302 233.431 227.973C234.716 228.279 265.608 228.403 302.082 228.248C364.767 227.981 368.46 227.865 369.548 226.118C370.469 224.64 370.297 223.979 368.684 222.799C366.978 221.553 356.559 221.333 300.699 221.358C257.825 221.379 234.092 221.755 232.912 222.431ZM184.863 259.624C186.217 259.624 187.945 257.845 190.052 254.281C191.79 251.342 193.503 248.929 193.86 248.92C194.763 248.894 205.475 267.301 204.892 267.875C204.631 268.132 193.142 268.219 179.361 268.068L154.305 267.794L161.13 253.497C164.883 245.633 168.437 238.051 169.027 236.646C170.021 234.277 170.556 235.01 176.465 246.859C181.38 256.715 183.294 259.624 184.863 259.624ZM231.788 240.391C230.505 241.654 231.083 244.593 232.738 245.218C233.641 245.559 264.41 245.838 301.114 245.838C358.915 245.838 368.021 245.634 369.131 244.319C369.835 243.484 370.142 242.105 369.809 241.255C369.28 239.898 360.909 239.71 300.843 239.71C263.243 239.71 232.168 240.016 231.788 240.391ZM231.788 257.752C230.505 259.015 231.083 261.954 232.738 262.579C233.641 262.92 254.642 263.199 279.409 263.199C321.245 263.199 324.503 263.072 325.372 261.411C327.638 257.076 327.587 257.071 278.927 257.071C253.381 257.071 232.168 257.378 231.788 257.752ZM388.863 353.579V413.321H256.006H123.15V353.579V293.836H256.006H388.863V353.579ZM138.762 315.201C137.392 317.721 137.332 360.134 138.696 362.259C139.529 363.558 144.727 363.836 172.923 364.087C195.384 364.287 206.849 364.024 208.27 363.275C210.305 362.204 210.365 361.372 210.096 337.959L209.818 313.75L174.831 313.482C141.074 313.222 139.806 313.282 138.762 315.201ZM220.937 314.452C220.024 315.35 219.678 322.079 219.678 338.939C219.678 360.879 219.791 362.247 221.686 363.245C224.777 364.872 288.313 364.669 290.599 363.024C292.2 361.872 292.347 359.407 292.094 337.748L291.815 313.75L257.006 313.482C230.799 313.279 221.885 313.519 220.937 314.452ZM302.368 313.921C301.987 314.295 301.676 325.309 301.676 338.394C301.676 361.177 301.764 362.234 303.761 363.286C305.158 364.021 316.806 364.285 339.089 364.087C367.285 363.836 372.483 363.558 373.317 362.259C374.674 360.144 374.621 317.722 373.257 315.215C372.228 313.322 370.729 313.24 337.621 313.24C318.613 313.24 302.748 313.546 302.368 313.921ZM204.109 338.771V358.174H174.528H144.946V338.771V319.367H174.528H204.109V338.771ZM285.87 338.515L285.588 357.664L255.747 357.934L225.906 358.206V338.786V319.367H256.029H286.152L285.87 338.515ZM367.066 338.771V358.174H337.485H307.903V338.771V319.367H337.485H367.066V338.771ZM138.36 374.982C138.035 375.815 138.483 377.2 139.356 378.059C140.715 379.396 145.742 379.618 174.342 379.605C192.712 379.596 208.372 379.197 209.141 378.717C209.911 378.237 210.372 376.979 210.165 375.923C209.807 374.095 208.096 373.99 174.371 373.735C143.841 373.503 138.869 373.676 138.36 374.982ZM220.049 375.038C219.717 375.888 220.023 377.266 220.728 378.102C221.813 379.39 227.182 379.62 256.006 379.62C284.831 379.62 290.199 379.39 291.285 378.102C291.99 377.266 292.296 375.888 291.964 375.038C291.443 373.7 286.608 373.493 256.006 373.493C225.405 373.493 220.57 373.7 220.049 375.038ZM302.368 374.174C301.085 375.436 301.663 378.375 303.318 379C304.221 379.342 319.835 379.62 338.014 379.62C366.291 379.62 371.299 379.395 372.656 378.059C373.529 377.2 373.98 375.821 373.658 374.995C373.158 373.715 367.918 373.493 338.066 373.493C318.812 373.493 302.748 373.799 302.368 374.174ZM138.426 387.024C138.171 387.727 138.381 389.106 138.895 390.088C139.733 391.689 141.76 391.875 158.349 391.875C173.474 391.875 177.103 391.596 178.149 390.357C178.854 389.521 179.16 388.143 178.828 387.293C178.319 385.989 175.157 385.748 158.559 385.748C143.765 385.748 138.777 386.064 138.426 387.024ZM220.291 387.409C218.74 391.383 221.223 391.937 239.287 391.644L256.525 391.365L256.853 388.556L257.182 385.748H239.06C223.282 385.748 220.854 385.962 220.291 387.409ZM302.368 386.429C301.085 387.691 301.663 390.63 303.318 391.255C304.221 391.596 312.104 391.875 320.835 391.875C333.62 391.875 336.961 391.579 337.992 390.357C338.697 389.521 339.003 388.143 338.671 387.293C338.167 385.998 335.232 385.748 320.564 385.748C310.936 385.748 302.748 386.054 302.368 386.429ZM420.52 445.521C418.237 447.488 411.912 452.448 406.466 456.546C373.623 481.253 334.889 497.27 291.858 503.937C275.654 506.447 236.145 506.407 220.197 503.862C168.531 495.619 129.739 477.628 88.4304 442.749C87.8876 442.291 163.321 441.923 256.058 441.932L424.672 441.947L420.52 445.521ZM166.081 458.767C165.752 459.609 165.752 460.988 166.081 461.83C166.598 463.156 172.125 463.362 207.08 463.362C243.434 463.362 247.546 463.196 248.128 461.701C249.813 457.383 248.431 457.235 206.544 457.235C172.065 457.235 166.597 457.442 166.081 458.767ZM255.36 458.725C253.843 462.614 255.597 463.458 264.553 463.149C272.932 462.859 273.132 462.792 273.132 460.299C273.132 457.805 272.932 457.738 264.553 457.448C257.592 457.207 255.858 457.448 255.36 458.725ZM279.017 459.022C277.29 462.326 278.726 463.362 285.028 463.362C291.788 463.362 294.678 461.544 292.334 458.767C290.394 456.468 280.252 456.662 279.017 459.022ZM219.787 473.956C219.136 474.728 218.896 476.106 219.253 477.019C219.756 478.311 221.359 478.681 226.45 478.681C233.299 478.681 234.757 477.714 232.995 474.341C231.811 472.075 221.624 471.778 219.787 473.956ZM239.444 474.032C238.72 474.89 238.407 476.306 238.747 477.178C239.252 478.47 240.956 478.71 247.946 478.467C256.325 478.177 256.525 478.111 256.525 475.617C256.525 473.144 256.279 473.055 248.642 472.769C242.569 472.541 240.457 472.831 239.444 474.032ZM264.429 473.944C263.773 474.722 263.529 476.111 263.888 477.032C264.48 478.548 268.334 478.68 305.164 478.438L345.788 478.17V475.617V473.064L305.705 472.797C272.578 472.576 265.415 472.775 264.429 473.944Z" fill="url(#paint0_linear_202_40)"/>
<defs>
<linearGradient id="paint0_linear_202_40" x1="8.0409e-10" y1="228.758" x2="511.706" y2="228.696" gradientUnits="userSpaceOnUse">
<stop stop-color="#AA367C"/>
<stop offset="1" stop-color="#4A2FBD"/>
</linearGradient>
</defs>
</svg>
