<svg width="512" height="512" viewBox="0 0 512 512" fill="none" xmlns="http://www.w3.org/2000/svg">
<path fill-rule="evenodd" clip-rule="evenodd" d="M2.66305 3.41565L0 6.82991V256V505.17L2.66305 508.584L5.32502 512H112.814H220.302L222.964 508.584L225.627 505.17V420.932V336.696L240.542 336.665C257.144 336.632 261.371 335.16 267.525 327.264C274.384 318.467 274.929 315.384 275.525 281.963L276.068 251.578L279.112 248.224C280.785 246.379 283.103 244.87 284.264 244.87C286.338 244.87 286.373 247.041 286.373 375.019V505.17L289.036 508.584L291.698 512H399.186H506.675L509.337 508.584L512 505.17V256V6.82991L509.337 3.41565L506.675 0H399.186H291.698L289.036 3.41565L286.373 6.82991V114.542V222.253L281.92 223.167C272.298 225.139 263.769 234.125 260.332 245.909C258.446 252.374 258.165 256.828 258.135 280.749C258.111 300.111 257.712 308.822 256.779 310.382C254.117 314.83 250.711 315.826 238.173 315.826H225.627V161.329V6.82991L222.964 3.41565L220.302 0H112.814H5.32502L2.66305 3.41565ZM105.726 81.472C62.1939 114.038 24.5012 142.239 21.9661 144.139L17.3559 147.595V84.928V22.2609H101.116H184.876L105.726 81.472ZM494.644 166.957V311.652H399.186H303.729V278.261V244.87H314.811H325.892L320.234 252.217C313.833 260.531 312.964 265.519 316.825 271.812C318.507 274.557 320.052 275.478 322.969 275.478C326.505 275.478 328.153 273.843 340.834 257.75C348.516 248 355.082 238.596 355.422 236.854C356.535 231.165 353.638 225.871 340.071 208.81C328.727 194.543 326.19 192 323.303 192C318.785 192 314.576 197.379 314.576 203.15C314.576 206.443 315.904 209.272 320.157 215.04L325.738 222.609H314.734H303.729V122.435V22.2609H399.186H494.644V166.957ZM207.914 155.357C207.705 155.624 170.251 155.683 124.683 155.487L41.8311 155.13L124.779 93.0699L207.729 31.008L208.011 92.9391C208.167 127.001 208.123 155.089 207.914 155.357ZM321.085 55.6522V66.7826H360.136H399.186V55.6522V44.5217H360.136H321.085V55.6522ZM321.085 100.174V111.304H399.186H477.288V100.174V89.0435H399.186H321.085V100.174ZM321.085 144.696V155.826H377.492H433.898V144.696V133.565H377.492H321.085V144.696ZM208.271 246.261V314.435H199.593H190.915V277.503V240.569L188.252 237.155L185.59 233.739H112.814H40.0369L37.3749 237.155L34.7119 240.569V333.913V427.257L37.3749 430.671L40.0369 434.087H112.814H185.59L188.252 430.671L190.915 427.257V381.976V336.696H199.593H208.271V413.217V489.739H199.593H190.915V476.459C190.915 464.213 190.708 462.912 188.252 459.763L185.59 456.348H112.814H40.0369L37.3749 459.763C34.9191 462.912 34.7119 464.213 34.7119 476.459V489.739H26.0339H17.3559V333.913V178.087H112.814H208.271V246.261ZM364.475 189.217V200.348H420.881H477.288V189.217V178.087H420.881H364.475V189.217ZM34.7119 211.478V222.609H60.7458H86.7797V211.478V200.348H60.7458H34.7119V211.478ZM364.475 233.739V244.87H420.881H477.288V233.739V222.609H420.881H364.475V233.739ZM173.559 285.217V314.435H163.958H154.358L150.991 307.488C137.062 278.749 102.283 287.251 96.4241 320.828C92.1535 345.309 109.059 369.458 128.665 366.883C139.753 365.426 149.392 356.253 153.589 343.167L155.661 336.705L164.61 336.701L173.559 336.696V374.261V411.826H112.814H52.0678V333.913V256H112.814H173.559V285.217ZM364.475 278.261V289.391H407.864H451.254V278.261V267.13H407.864H364.475V278.261ZM134.95 317.141C137.799 320.796 138.305 322.486 138.305 328.348C138.305 334.289 137.812 335.885 134.759 339.8C131.707 343.715 130.462 344.348 125.831 344.348C121.199 344.348 119.954 343.715 116.902 339.8C113.861 335.9 113.356 334.278 113.356 328.433C113.356 321.281 116.121 315.629 120.949 312.909C125.005 310.624 131.368 312.547 134.95 317.141ZM473.944 334.422C473.695 334.703 435.295 367.574 388.61 407.471L303.729 480.008V406.961V333.913H389.063C435.995 333.913 474.192 334.143 473.944 334.422ZM494.644 416.696V489.739H409.221H323.799L408.95 416.789C455.783 376.666 494.224 343.797 494.373 343.745C494.521 343.694 494.644 376.522 494.644 416.696ZM173.559 484.174V489.739H112.814H52.0678V484.174V478.609H112.814H173.559V484.174Z" fill="url(#paint0_linear_202_29)"/>
<defs>
<linearGradient id="paint0_linear_202_29" x1="2.85773e-08" y1="235.13" x2="512.012" y2="232.908" gradientUnits="userSpaceOnUse">
<stop stop-color="#AA367C"/>
<stop offset="1" stop-color="#4A2FBD"/>
</linearGradient>
</defs>
</svg>
