<svg width="512" height="512" viewBox="0 0 512 512" fill="none" xmlns="http://www.w3.org/2000/svg">
<path fill-rule="evenodd" clip-rule="evenodd" d="M31.5501 2.70897L28.9205 5.41683V173.13V340.842L31.5041 343.938L34.0866 347.034L57.2112 347.371L80.3347 347.708V360.365V373.022L76.8536 371.167C54.3802 359.189 25.0259 371.349 16.5757 396.138C12.7507 407.358 13.8476 422.745 19.1304 431.965L21.0477 435.31L14.9605 441.384C3.09449 453.222 0 463.424 0 490.714V509.793H8.56904H17.1381V491.235C17.1381 468.735 18.2467 463.891 25.2305 455.89C31.2406 449.004 33.1611 448.327 38.8863 451.073C49.815 456.316 64.5334 456.376 75.9185 451.225C78.4977 450.058 81.2912 449.103 82.1289 449.103C82.9654 449.103 85.9571 451.479 88.7752 454.383C96.4638 462.304 97.4728 466.45 97.4728 490.127V509.793H106.119H114.766L114.42 486.897L114.075 464L110.541 456.276C108.242 451.253 104.781 446.23 100.643 441.912L94.2808 435.273L96.497 430.66C97.7149 428.122 99.2669 423.041 99.9439 419.368L101.177 412.69H122.233H143.289L144.553 419.595C145.249 423.393 146.91 428.732 148.242 431.457L150.666 436.414L144.559 442.613C137.684 449.588 132.341 459.687 130.683 468.84C130.091 472.109 129.607 483.158 129.607 493.391V512H138.176H146.745V493.442C146.745 472.767 147.857 466.769 153.059 459.37C154.775 456.929 157.813 453.891 159.809 452.62L163.438 450.31L168.749 452.922C180.667 458.787 193.041 458.805 205.405 452.973C208.631 451.452 211.465 450.207 211.701 450.207C213.517 450.207 222.537 460.662 224.554 465.103C226.898 470.269 227.059 471.943 227.069 491.31L227.079 512H235.649H244.218V490.656C244.218 472.169 243.931 468.45 242.071 462.882C239.246 454.426 234.343 446.701 228.576 441.623L223.903 437.508L226.828 430.34C229.322 424.227 229.752 421.63 229.748 412.69C229.742 403.224 229.413 401.492 226.36 394.836C218.55 377.814 204.688 368.435 187.284 368.396C181.025 368.382 177.542 369.021 172.556 371.095L166.025 373.813V360.7V347.586H317.089C485.213 347.586 474.424 348.084 476.633 340.224C477.485 337.194 477.731 289.273 477.504 170.663L477.188 5.32634L474.183 2.66262L471.177 0H252.678H34.1787L31.5501 2.70897ZM460.321 173.517L460.05 329.379L313.038 329.66L166.025 329.939V317.798V305.655L170.577 305.631C180.632 305.578 189.528 298.078 191.735 287.794C192.583 283.849 192.874 272.366 192.628 252.69C192.276 224.666 192.155 223.206 189.709 217.623C186.306 209.855 178.272 202.453 170.825 200.222C166.056 198.794 158.382 198.577 122.453 198.849L79.7478 199.172L72.613 202.793C63.9239 207.201 56.7924 214.974 53.3615 223.777C51.0243 229.777 50.9097 231.426 50.8947 259.31C50.8776 291.47 51.2546 293.971 57.0612 300.12C61.7624 305.098 67.961 307.809 74.7113 307.838L80.3347 307.862V318.345V328.828L65.6067 328.843C57.5068 328.851 49.7936 329.158 48.4686 329.523L46.0586 330.188V173.922V17.6552H253.325H460.593L460.321 173.517ZM226.008 31.5961C197.944 33.5459 197.78 33.6188 197.311 44.363L196.997 51.5343L186.575 52.1887C174.221 52.9633 172.835 53.4157 170.887 57.2966C169.598 59.8632 169.833 66.9186 172.652 110.404C174.441 138.007 176.453 161.78 177.125 163.285C177.798 164.788 179.701 166.508 181.354 167.107C183.475 167.875 199.941 167.15 237.235 164.648C266.316 162.697 290.888 160.792 291.839 160.416C292.79 160.04 294.276 158.324 295.14 156.604C296.54 153.812 296.357 148.006 293.443 102.944C290.612 59.1735 289.914 52.0452 288.222 49.6552C286.332 46.9859 285.871 46.8977 273.924 46.923L261.581 46.9484L261.107 41.0637C260.547 34.1109 258.112 31.0179 252.722 30.4121C250.696 30.1837 238.674 30.7167 226.008 31.5961ZM244.218 50.5964C244.218 51.7219 244.522 55.6436 244.895 59.3137L245.571 65.984L236.058 66.6781C230.825 67.0599 224.087 67.6326 221.082 67.9514L215.621 68.5308L214.922 60.0143C214.538 55.3291 214.438 51.2761 214.699 51.0058C215.154 50.539 231.667 49.0527 240.201 48.7117C243.454 48.5826 244.218 48.9412 244.218 50.5964ZM361.482 53.4422C360.006 54.9628 358.574 58.0811 358.176 60.6389C357.792 63.1217 357.153 65.3583 356.759 65.6088C356.364 65.8604 351.969 65.1167 346.991 63.9581C342.014 62.7983 336.669 61.8372 335.115 61.8218C328.58 61.7556 328.438 62.1572 316.453 114.624C310.304 141.546 305.272 164.778 305.272 166.25C305.272 172.482 306.845 173.039 362.12 186.391C397.28 194.883 415.075 198.719 417.003 198.22C418.572 197.814 420.553 196.373 421.405 195.017C423.037 192.418 444.519 98.6505 444.519 94.1219C444.519 89.3517 440.426 86.6417 429.178 83.9636C420.529 81.9046 418.813 81.1575 419.246 79.6337C421.831 70.5324 421.132 65.8218 416.861 63.5597C413.978 62.0314 369.012 50.7586 365.803 50.7586C364.859 50.7586 362.915 51.9658 361.482 53.4422ZM273.185 65.931C273.211 66.9937 274.368 84.7448 275.756 105.379C277.145 126.014 277.967 143.201 277.584 143.572C276.988 144.15 192.498 150.209 192.139 149.7C192.069 149.6 191.212 135.117 190.235 117.517C189.258 99.9172 188.164 81.9167 187.805 77.5172L187.152 69.5172H192.578H198.005L198.731 75.5035C199.238 79.6811 200.209 82.2179 201.948 83.9007L204.438 86.3106L230.487 84.4977C262.007 82.304 261.729 82.4199 262.208 71.3346L262.524 64H267.832C272.154 64 273.147 64.3586 273.185 65.931ZM388.82 73.7368L401.138 76.7912L400.923 81.1542C400.804 83.5542 400.081 87.5564 399.316 90.048L397.925 94.5788L384 91.2629C376.341 89.44 369.906 87.8069 369.699 87.6326C369.493 87.4593 370.183 83.5608 371.234 78.9694C372.617 72.928 373.609 70.6295 374.824 70.6516C375.747 70.6681 382.045 72.0563 388.82 73.7368ZM351.594 85.6154C349.984 98.0811 349.949 97.5636 352.598 100.106C354.512 101.942 360.868 103.946 377.976 108.106C390.53 111.158 402.61 113.655 404.821 113.655C409.788 113.655 411.801 111.526 413.531 104.436L414.838 99.0797L419.235 99.8036C421.653 100.201 424.022 100.928 424.499 101.419C425.294 102.237 408.828 177.274 407.567 178.572C407 179.156 327.124 160.263 324.951 159.03C324.112 158.554 326.316 147.217 332.165 121.931C336.797 101.903 340.832 84.4502 341.132 83.147C341.651 80.8861 341.912 80.8397 346.771 82.1418C350.801 83.2221 351.809 83.9481 351.594 85.6154ZM113.004 108.52C91.6116 114.259 78.7602 134.207 81.6361 157.212C84.5089 180.198 107.026 197.139 129.374 193.13C156.431 188.276 171.511 160.719 161.697 134.069C158.279 124.788 147.665 113.873 138.712 110.433C130.824 107.401 120.138 106.606 113.004 108.52ZM134.646 128.109C150.409 135.97 152.031 161.044 137.44 171.303C120.357 183.315 98.3908 171.68 98.3908 150.621C98.3908 131.031 117.149 119.383 134.646 128.109ZM248.839 184.199C245.52 185.697 244.218 188.807 244.218 195.238V200.828H232.638C219.065 200.828 216.892 202.009 215.937 209.908C215.623 212.5 215.064 236.221 214.695 262.621L214.023 310.621L216.888 313.379L219.752 316.138L273.092 317.119C302.429 317.658 327.683 317.777 329.211 317.382C330.738 316.986 332.579 315.552 333.302 314.194C334.244 312.424 334.897 297.075 335.607 260.023L336.598 208.322L334.037 205.683C331.769 203.346 330.164 202.962 319.981 202.321L308.485 201.596V195.641C308.485 190.621 308.041 189.263 305.651 186.982C303.032 184.481 301.994 184.276 291.994 184.271C286.042 184.269 274.423 184.014 266.176 183.705C257.642 183.385 250.172 183.598 248.839 184.199ZM283.582 201.923L291.347 201.931V210.759V219.586L283.582 219.578C279.31 219.574 272.562 219.254 268.586 218.867L261.356 218.164V209.336V200.509L268.586 201.212C272.562 201.599 279.31 201.919 283.582 201.923ZM170.196 220.209C171.991 221.766 173.954 224.868 174.557 227.105C175.17 229.38 175.656 243.393 175.659 258.9C175.665 288.746 175.49 289.699 170.101 288.913L167.632 288.552L167.093 264.828C166.796 251.779 166.136 240.221 165.628 239.142C163.686 235.027 156.517 233.631 152.573 236.6C149.766 238.712 149.131 249.527 148.994 297.476C148.935 318.164 148.568 348.597 148.178 365.107L147.47 395.124L139.877 394.804L132.285 394.483L132.001 361.171L131.718 327.859L128.912 325.585C125.215 322.59 121.834 322.711 118.152 325.972L115.146 328.633L114.82 361.879L114.493 395.125L106.251 394.804L98.0084 394.483L97.4728 316.324C96.9533 240.566 96.873 238.119 94.8582 236.6C90.9121 233.629 83.7195 235.031 81.8247 239.142C81.3277 240.221 80.6679 251.762 80.3594 264.788L79.7992 288.472L76.9767 290.101C74.4467 291.562 73.8651 291.535 71.3533 289.839L68.5523 287.949V260.737C68.5523 235.17 68.6915 233.229 70.8488 228.637C72.3752 225.388 74.7798 222.681 78.0211 220.565L82.8969 217.379H124.914H166.932L170.196 220.209ZM243.376 224.623C243.746 229.229 244.515 231.413 246.454 233.363C248.979 235.902 249.643 235.979 275.595 236.748L302.154 237.534L304.784 234.988C306.939 232.904 307.414 231.38 307.414 226.567V220.69H313.172H318.929L318.503 248C318.267 263.021 317.793 280.974 317.449 287.897L316.822 300.483L292.035 299.762C278.402 299.364 259.173 299.039 249.305 299.037L231.364 299.034L231.367 281.103C231.368 271.242 231.685 253.117 232.072 240.828L232.775 218.483H237.828H242.881L243.376 224.623ZM357.412 225.826C357.013 226.238 356.686 230.216 356.686 234.667V242.759H400.112H443.538L443.225 234.207L442.912 225.655L400.525 225.367C377.212 225.208 357.812 225.415 357.412 225.826ZM356.686 261.535V270.379L386.946 270.087L417.205 269.793L417.518 261.241L417.831 252.69H387.258H356.686V261.535ZM356.686 288V296.828H400.067H443.448V288V279.172H400.067H356.686V288ZM311.568 368.893C293.995 375.063 281.707 392.397 281.707 411.017C281.707 417.205 284.895 429.482 287.429 433.052C288.808 434.994 288.468 435.617 283.447 440.366C270.878 452.254 267.782 462.094 267.782 490.163V509.793H276.351H284.92V490.622C284.92 469.886 285.729 465.504 291.005 457.651C292.535 455.372 295.426 452.465 297.43 451.189L301.072 448.87L306.118 451.066C318.206 456.329 332.288 456.388 343.701 451.225C346.28 450.058 348.942 449.103 349.616 449.103C352.376 449.103 358.883 456.181 361.966 462.537L365.255 469.318V489.556V509.793H373.917H382.581L382.219 486.835L381.858 463.876L377.875 455.581C375.185 449.975 371.943 445.385 367.884 441.429L361.875 435.574L364.904 428.822C367.59 422.833 367.933 420.822 367.93 411.034C367.928 400.92 367.643 399.38 364.51 392.562C354.86 371.56 332.473 361.551 311.568 368.893ZM442.912 367.83C426.318 373.491 415.297 386.319 412.177 403.606C410.697 411.804 412.291 422.754 416.056 430.253L418.502 435.126L412.377 441.299C400.454 453.319 397.389 463.422 397.389 490.714V509.793H405.958H414.527V491.235C414.527 468.691 415.629 463.898 422.675 455.826C428.57 449.073 431.106 448.21 436.629 451.081C446.692 456.312 461.932 456.372 473.308 451.225C475.887 450.058 478.68 449.103 479.518 449.103C480.355 449.103 483.346 451.479 486.164 454.383C493.853 462.304 494.862 466.45 494.862 490.127V509.793H503.431H512V488.926C512 471.828 511.648 466.895 510.047 461.615C507.552 453.378 503.568 446.931 496.969 440.446L491.721 435.289L494.631 429.234C497.264 423.752 497.54 422.025 497.54 411.014C497.54 399.564 497.339 398.43 494.117 391.689C489.775 382.602 482.326 374.912 473.559 370.466C467.626 367.457 465.372 366.943 456.946 366.676C450.926 366.486 445.558 366.927 442.912 367.83ZM69.3182 387.15C85.0231 395.404 88.3661 416.328 76.0706 429.41C59.8333 446.687 31.8661 434.998 31.8661 410.935C31.8661 391.022 52.1619 378.133 69.3182 387.15ZM332.638 385.233C338.555 386.767 346.655 393.918 349.319 399.957C353.499 409.436 351.195 422.591 344.069 429.931C331.779 442.592 311.332 439.704 302.398 424.046C299.853 419.586 299.385 417.549 299.409 411.034C299.477 392.305 314.608 380.555 332.638 385.233ZM466.284 386.716C475.745 391.394 480.883 400.134 480.904 411.586C480.947 434.571 455.318 446.353 438.483 431.086C432.486 425.649 429.579 419.524 429.547 412.266C429.496 400.729 435.089 391.422 444.994 386.558C451.403 383.411 459.728 383.473 466.284 386.716ZM198.915 388.608C215.384 396.513 218.572 420.007 204.897 432.694C194.94 441.933 179.977 441.97 170.101 432.777C147.663 411.895 171.455 375.426 198.915 388.608Z" fill="url(#paint0_linear_202_48)"/>
<defs>
<linearGradient id="paint0_linear_202_48" x1="-3.01791e-09" y1="256" x2="512" y2="256.109" gradientUnits="userSpaceOnUse">
<stop stop-color="#AA367C"/>
<stop offset="1" stop-color="#4A2FBD"/>
</linearGradient>
</defs>
</svg>
