<svg width="480" height="480" viewBox="0 0 480 480" fill="none" xmlns="http://www.w3.org/2000/svg">
<path fill-rule="evenodd" clip-rule="evenodd" d="M376.519 162.481C367.318 163.981 358.983 171.638 356.286 181.069C355.179 184.939 354.712 189.421 354.933 194.05L355.122 197.99L344.287 210.002C338.329 216.608 333.31 222.013 333.136 222.013C332.961 222.013 329.045 217.83 324.432 212.718L316.047 203.423L316.528 201.579C316.843 200.371 317.012 198.135 317.017 195.101C317.023 190.956 316.93 190.166 316.137 187.615C313.9 180.427 309.866 175.435 303.565 172.06C300.008 170.154 297.029 169.512 292.637 169.705C286.613 169.971 281.493 172.463 277.311 177.166C269.731 185.69 268.182 198.927 273.57 209.122C275.279 212.354 279.35 216.627 282.191 218.169C286.486 220.501 288.74 221.036 294.693 221.138L299.962 221.227L308.512 230.709L317.062 240.191L307.503 250.796L297.944 261.401L292.237 261.432C287.469 261.458 286.118 261.588 284.027 262.222C278.823 263.803 274.291 267.259 270.885 272.244C265.871 279.585 264.591 288.236 267.237 296.912C268.113 299.785 268.639 300.432 270.099 300.432C270.919 300.432 271.938 299.467 276.915 293.977L282.767 287.521L286.095 288.313C287.925 288.749 289.532 289.216 289.665 289.352C289.799 289.488 290.246 291.275 290.659 293.323L291.409 297.046L285.514 303.662C279.242 310.701 278.866 311.359 280.242 312.885C280.584 313.265 282.067 314.021 283.536 314.565C285.966 315.465 286.632 315.555 290.869 315.555C295.046 315.556 295.789 315.46 298.03 314.623C305.569 311.81 311.912 304.59 314.41 295.977C315.358 292.711 315.53 285.366 314.738 282.005L314.133 279.439L323.715 268.818L333.296 258.197L343.705 269.737L354.114 281.277L354.107 286.131C354.099 291.419 354.574 294.637 355.9 298.278C359.589 308.409 368.208 314.408 378.294 313.867C387.241 313.386 394.818 307.801 398.505 298.968C400.194 294.919 400.627 292.727 400.608 288.313C400.588 283.736 400.001 281.053 398.059 276.667C395.39 270.639 390.296 265.673 384.561 263.506C381.199 262.236 375.75 261.923 372.36 262.805L370.122 263.386L359.743 251.877L349.365 240.368L360.399 228.135L371.433 215.902L373.497 216.523C376.59 217.452 382.232 217.382 385.459 216.374C393.706 213.796 400.45 206.873 403.239 198.118C404.897 192.915 404.606 184.629 402.596 179.759C401.782 177.786 400.897 177.145 399.611 177.598C399.289 177.712 396.45 180.664 393.303 184.158L387.581 190.512L384.143 189.661C382.252 189.194 380.619 188.703 380.516 188.57C380.412 188.437 380 186.665 379.601 184.632L378.876 180.935L384.692 174.451C389.638 168.936 390.508 167.807 390.508 166.898C390.508 165.294 389.929 164.701 387.421 163.734C383.715 162.305 380.128 161.893 376.519 162.481ZM383.985 167.608C384.108 167.745 382.09 170.218 379.5 173.102C376.909 175.987 374.66 178.749 374.502 179.239C374.291 179.89 374.531 181.667 375.391 185.833C376.039 188.97 376.681 191.809 376.817 192.143C376.954 192.477 377.523 192.909 378.081 193.103C379.501 193.597 388.094 195.636 388.756 195.636C389.056 195.636 391.578 193.141 394.362 190.091C400.048 183.863 399.661 183.959 400.022 188.685C400.455 194.372 398.209 200.627 394.093 205.193C391.308 208.283 389.051 209.891 385.679 211.192C381.474 212.814 375.216 212.689 372.631 210.932C372.08 210.557 371.359 210.25 371.028 210.25C370.66 210.25 358.581 223.385 339.808 244.2C313.137 273.772 309.19 278.284 309.19 279.193C309.19 279.767 309.416 280.514 309.692 280.852C310.469 281.804 311.193 287.008 310.952 289.901C310.164 299.333 304.031 307.604 295.851 310.263C293.779 310.937 289.297 311.14 287.216 310.655L285.973 310.365L290.992 304.73C293.94 301.42 296.012 298.813 296.012 298.414C296.012 297.36 293.822 286.608 293.45 285.838C293.049 285.006 293.197 285.058 286.877 283.53C282.961 282.583 281.603 282.381 281.092 282.668C280.724 282.874 278.295 285.384 275.694 288.245C273.092 291.106 270.85 293.321 270.712 293.167C270.573 293.014 270.459 290.936 270.459 288.551C270.459 284.952 270.585 283.811 271.198 281.844C273.343 274.96 278.29 269.384 284.136 267.261C286.302 266.474 287.036 266.394 291.833 266.422C294.75 266.439 297.619 266.506 298.208 266.571C299.24 266.684 300.383 265.464 329.496 233.177C353.736 206.295 359.705 199.496 359.67 198.809C359.3 191.633 359.333 187.726 359.784 185.332C360.364 182.249 361.742 178.813 363.406 176.3C365.899 172.534 370.909 168.886 375.262 167.668C377.187 167.13 383.514 167.086 383.985 167.608ZM298.262 175.023C299.057 175.232 300.72 175.937 301.958 176.589C310.274 180.97 314.516 191.156 312.082 200.896C311.729 202.311 311.44 203.833 311.44 204.277C311.44 204.862 313.982 207.904 320.6 215.24C325.638 220.825 329.76 225.554 329.76 225.749C329.76 225.944 327.629 228.471 325.025 231.364L320.29 236.624L310.915 226.249L301.539 215.874L299.177 216.157C290.761 217.167 284.416 215.251 280.054 210.384C276.715 206.659 274.798 201.344 274.798 195.814C274.798 189.94 276.707 184.876 280.509 180.664C285.45 175.189 291.546 173.252 298.262 175.023ZM291.776 182.264C286.694 183.975 284.762 184.748 284.762 185.073C284.762 185.131 283.967 188.12 282.994 191.715C282.022 195.309 281.227 198.731 281.227 199.318C281.227 200.208 281.91 201.155 285.325 204.991C287.579 207.524 289.811 209.822 290.285 210.099C291.08 210.561 291.629 210.443 297.196 208.624C300.522 207.536 303.553 206.423 303.93 206.149C304.36 205.839 304.864 204.745 305.278 203.228C307.617 194.641 308.295 191.715 308.123 190.953C308.018 190.488 305.925 187.903 303.473 185.208C300.139 181.544 298.817 180.314 298.236 180.33C297.808 180.342 294.901 181.213 291.776 182.264ZM300.425 188.945C302.064 190.755 303.404 192.449 303.404 192.709C303.404 193.356 301.123 201.808 300.859 202.136C300.743 202.281 298.705 203.045 296.329 203.835L292.009 205.272L288.897 201.79L285.785 198.309L287.084 193.497C287.799 190.85 288.421 188.635 288.468 188.573C288.606 188.391 296.452 185.732 296.97 185.692C297.232 185.671 298.787 187.136 300.425 188.945ZM369.669 268.619C370.082 268.517 371.359 268.142 372.508 267.786C373.836 267.373 375.652 267.139 377.49 267.144C382.591 267.158 386.602 269.031 390.377 273.164C393.086 276.13 394.766 279.31 395.651 283.148C397.37 290.599 395.686 297.263 390.697 302.765C386.705 307.167 382.747 308.987 377.169 308.987C371.745 308.987 367.681 307.177 363.961 303.106C361.493 300.404 360.052 297.62 359.163 293.838C358.479 290.923 358.21 285.048 358.644 282.49C358.93 280.81 358.91 280.228 358.542 279.461C358.292 278.938 353.233 273.138 347.3 266.573L336.512 254.634L341.408 249.197L346.303 243.759L357.611 256.281C367.261 266.967 369.028 268.776 369.669 268.619ZM374.686 274.337C371.376 275.456 368.451 276.615 368.184 276.912C367.635 277.524 364.152 290.095 364.152 291.462C364.152 292.127 365.218 293.547 368.354 297.06C370.665 299.648 372.903 301.972 373.328 302.224C374.001 302.623 374.628 302.509 378.206 301.333C386.726 298.532 387.168 298.349 387.533 297.46C388.221 295.784 391.15 284.474 391.15 283.491C391.15 282.67 390.326 281.565 386.731 277.571C384.105 274.653 381.986 272.588 381.508 272.482C381.035 272.376 378.231 273.139 374.686 274.337ZM383.492 281.095L386.59 284.57L385.292 289.382C384.578 292.029 383.964 294.236 383.927 294.287C383.89 294.337 381.868 295.039 379.434 295.845L375.009 297.311L371.991 293.977C370.331 292.144 368.973 290.431 368.973 290.17C368.973 289.492 371.261 281.062 371.537 280.721C371.749 280.46 379.318 277.741 380.068 277.656C380.248 277.636 381.789 279.183 383.492 281.095Z" fill="url(#paint0_linear_205_78)"/>
<path fill-rule="evenodd" clip-rule="evenodd" d="M102.021 161.349C100.087 161.785 97.3004 163.277 95.5005 164.841C93.3949 166.67 76.8186 189.46 75.4522 192.404C73.0635 197.551 73.1096 203.166 75.5759 207.497C76.2831 208.739 81.0659 213.266 96.8906 227.669C108.112 237.883 117.503 246.44 117.758 246.684C118.162 247.069 118.497 246.731 120.304 244.118C121.449 242.464 122.413 241.002 122.445 240.87C122.478 240.739 118.679 237.174 114.002 232.949C109.326 228.724 105.492 225.192 105.482 225.101C105.468 224.971 119.746 205.335 128.956 192.816L130.225 191.091L138.436 198.573C142.952 202.688 146.726 206.057 146.823 206.059C147.039 206.064 150.921 200.633 151.049 200.148C151.099 199.957 149.59 198.385 147.695 196.654C132.186 182.484 111.427 163.65 110.649 163.042C108.57 161.418 104.907 160.699 102.021 161.349ZM187.012 166.157C184.626 166.735 182.002 168.296 180.091 170.275C177.901 172.543 120.18 254.91 119.092 257.32C118.29 259.096 118.192 259.642 118.192 262.33C118.192 264.807 118.316 265.626 118.885 266.914C119.965 269.359 120.5 269.967 126.37 275.41C132.939 281.501 133.866 282.019 137.811 281.803C140.612 281.65 142.044 281.029 143.991 279.123C145.562 277.584 207.557 198.982 208.682 197.101C212.28 191.088 211.873 182.459 207.737 177.078C206.051 174.885 199.276 168.721 197.344 167.624C194.055 165.755 190.661 165.273 187.012 166.157ZM105.762 169.339C106.823 169.688 124.54 185.633 124.424 186.135C124.245 186.912 99.9077 219.759 99.6067 219.63C98.6749 219.231 81.5619 203.307 81.2531 202.551C80.6181 200.997 80.8215 198.317 81.7251 196.335C82.8501 193.867 99.1826 171.583 100.564 170.631C101.74 169.821 103.547 169.028 104.264 169.007C104.511 169 105.185 169.15 105.762 169.339ZM192.829 174.167C193.975 174.547 195.269 175.534 198.192 178.258C202.266 182.057 203.204 183.28 203.74 185.49C204.213 187.44 203.9 190.45 203.061 192.027C202.287 193.478 140.665 271.704 139.247 273.035C138.102 274.109 136.423 274.145 135.231 273.12C132.341 270.639 125.78 264.362 125.529 263.84C125.021 262.781 125.198 261.318 125.993 260.012C127.898 256.882 184.114 177.032 185.198 175.918C187.206 173.852 189.964 173.219 192.829 174.167ZM185.859 236.483C184.72 237.967 183.748 239.305 183.698 239.455C183.649 239.606 187.625 243.374 192.534 247.828C197.443 252.282 201.572 256.036 201.709 256.171C201.933 256.391 177.913 290.294 177.41 290.468C177.294 290.508 172.751 286.481 167.314 281.518L157.43 272.496L156.531 273.646C156.037 274.279 154.967 275.65 154.154 276.693C153.306 277.781 152.804 278.685 152.976 278.814C153.142 278.938 158.299 283.623 164.438 289.226C170.577 294.828 175.951 299.62 176.381 299.874C176.985 300.231 181.85 300.511 197.663 301.102C209.223 301.533 218.451 301.745 218.824 301.587C219.908 301.127 221.079 299.319 221.079 298.104C221.079 296.695 210.507 254.733 209.886 253.676C209.38 252.815 188.624 233.784 188.191 233.784C188.048 233.784 186.999 234.999 185.859 236.483ZM107.501 261.372C96.7963 263.935 89.8027 273.813 88.8433 287.723C88.2952 295.669 86.6873 299.479 83.1317 301.257C82.0735 301.787 81.0189 302.585 80.7322 303.073C80.0361 304.257 80.0748 306.426 80.8119 307.538C81.8126 309.048 88.6597 311.721 95.4341 313.246C112.797 317.156 126.307 311.438 133.883 296.972C134.845 295.137 137.212 289.319 137.212 288.792C137.212 288.717 136.355 288.565 135.309 288.456C134.262 288.347 132.686 287.953 131.807 287.581C130.928 287.209 130.193 286.938 130.174 286.979C130.154 287.021 129.753 288.088 129.282 289.351C128.812 290.615 127.771 292.767 126.971 294.134C120.557 305.09 110.203 308.689 95.5781 305.045C93.6836 304.574 92.0252 304.114 91.8928 304.023C91.7601 303.933 91.888 303.46 92.177 302.972C94.2944 299.393 95.4466 295.201 95.8974 289.434C96.4659 282.157 98.0968 277.453 101.283 273.901C104.02 270.849 108.096 268.871 111.678 268.858C112.378 268.855 112.951 268.785 112.951 268.702C112.951 268.619 112.748 267.686 112.501 266.628C112.254 265.57 112.052 263.834 112.052 262.771V260.837L110.779 260.864C110.079 260.879 108.604 261.108 107.501 261.372ZM209.073 279.025C211.057 286.908 212.627 293.418 212.561 293.491C212.406 293.664 185.727 292.669 185.561 292.483C185.491 292.405 189.91 286.085 195.38 278.438C200.85 270.791 205.357 264.57 205.396 264.613C205.435 264.657 207.089 271.142 209.073 279.025Z" fill="url(#paint1_linear_205_78)"/>
<path fill-rule="evenodd" clip-rule="evenodd" d="M72.9075 120.266L0 240.37L72.4658 359.619C112.322 425.206 145.276 479.125 145.695 479.439C146.116 479.752 167.518 445.349 193.256 402.988C218.993 360.627 240.221 325.967 240.429 325.967C240.636 325.967 261.877 360.625 287.63 402.984C313.384 445.343 334.65 480 334.888 480C335.77 480 480 241.862 480 240.407C480 239.577 447.339 185.145 407.421 119.449L334.841 0L287.705 77.6655C247.696 143.588 240.416 155.096 239.564 153.768C239.012 152.907 217.768 117.975 192.356 76.1418C166.943 34.3085 146.076 0.0992938 145.984 0.122208C145.891 0.145122 113.007 54.2106 72.9075 120.266ZM193.168 97.4645C218.7 139.473 239.986 173.844 240.469 173.844C240.953 173.844 262.238 139.473 287.77 97.4645C313.302 55.4556 334.407 20.937 334.67 20.7575C334.999 20.5334 465.819 234.688 468.599 240.003C468.747 240.286 400.063 353.781 342.411 448.519L334.891 460.878L288.623 384.83C263.176 343.004 241.895 308.054 241.331 307.164C240.447 305.771 233.777 316.303 193.125 383.282L145.945 461.016L144.27 458C143.35 456.341 113.24 406.688 77.3588 347.661C41.4781 288.632 12.3577 239.903 12.6468 239.373C17.1033 231.213 145.849 20.4736 146.223 20.7282C146.511 20.9242 167.636 55.4556 193.168 97.4645Z" fill="url(#paint2_linear_205_78)"/>
<defs>
<linearGradient id="paint0_linear_205_78" x1="265.892" y1="238.859" x2="404.422" y2="238.86" gradientUnits="userSpaceOnUse">
<stop stop-color="#AA367C"/>
<stop offset="1" stop-color="#4A2FBD"/>
</linearGradient>
<linearGradient id="paint1_linear_205_78" x1="73.6929" y1="237.928" x2="221.059" y2="237.995" gradientUnits="userSpaceOnUse">
<stop stop-color="#AA367C"/>
<stop offset="1" stop-color="#4A2FBD"/>
</linearGradient>
<linearGradient id="paint2_linear_205_78" x1="-1.15126e-07" y1="239.536" x2="479.772" y2="240.848" gradientUnits="userSpaceOnUse">
<stop stop-color="#AA367C"/>
<stop offset="1" stop-color="#4A2FBD"/>
</linearGradient>
</defs>
</svg>
