<svg width="436" height="420" viewBox="0 0 436 420" fill="none" xmlns="http://www.w3.org/2000/svg">
<path fill-rule="evenodd" clip-rule="evenodd" d="M0 210V420H218H436V210V0H218H0V210ZM430 24.5V44H218H6V24.5V5H218H430V24.5ZM21.19 14.026C8.203 21.944 19.51 41.476 33.033 34.483C41.102 30.31 40.863 17.536 32.643 13.635C28.099 11.479 25.205 11.577 21.19 14.026ZM50.237 13.997C42.993 18.414 42.205 27.339 48.566 32.924C56.349 39.758 68 34.381 68 23.954C68 19.686 65.254 15.348 61.393 13.516C57.111 11.484 54.149 11.612 50.237 13.997ZM79.237 13.941C71.986 18.486 71.207 27.34 77.566 32.924C85.521 39.909 97 34.363 97 23.535C97 20.908 96.145 19.038 93.749 16.424C89.561 11.853 84.067 10.913 79.237 13.941ZM31.365 19.073C34.589 21.608 34.878 26.122 32 29C27.794 33.206 20.667 30.061 20.667 24C20.667 21.76 21.404 20.091 22.944 18.844C25.895 16.454 28.113 16.514 31.365 19.073ZM60.365 19.073C63.589 21.608 63.878 26.122 61 29C58.27 31.73 54.42 31.511 51.359 28.45C48.4 25.491 48.713 21.661 52.153 18.75C54.87 16.451 57.146 16.541 60.365 19.073ZM89.365 19.073C92.622 21.634 92.808 25.512 89.826 28.686C86.858 31.845 82.702 31.708 80.073 28.365C77.351 24.905 77.456 22.453 80.455 19.455C83.453 16.456 85.905 16.351 89.365 19.073ZM430 100V151H349.5H269V147.105C269 141.072 265.396 130.821 260.916 124.112C242.8 96.983 205.857 93.137 183 116.002C179.425 119.579 175.277 124.787 173.783 127.577C170.724 133.289 168 142.771 168 147.71V151H87H6V100V49H218H430V100ZM233.465 108.988C245.016 112.962 253.897 120.967 259.633 132.573C262.919 139.22 263.352 141.025 263.761 149.75C264.144 157.922 263.866 160.552 262.041 166C259.888 172.43 255.664 180 254.23 180C253.822 180 252.507 177.862 251.309 175.249C248.388 168.882 240.752 161.44 233.924 158.304L228.348 155.743L230.729 153.362C237.45 146.64 237.646 136.489 231.186 129.661C227.343 125.598 223.761 124 218.5 124C208.97 124 200.957 131.938 201.022 141.315C201.051 145.474 204.201 152.327 206.979 154.272C209.127 155.777 209.044 155.868 203.055 158.556C196.005 161.72 186.894 170.761 185.014 176.458C184.371 178.406 183.436 180 182.937 180C181.354 180 177.214 172.736 174.959 166C173.134 160.552 172.856 157.922 173.239 149.75C173.648 141.025 174.081 139.22 177.367 132.573C187.929 111.201 211.318 101.368 233.465 108.988ZM226.579 132.074C230.112 135.394 231.626 141.076 230.013 144.968C225.716 155.342 212.578 155.819 207.392 145.79C204.702 140.589 207.831 132.313 213.388 129.927C216.932 128.405 223.877 129.536 226.579 132.074ZM168.757 161.967C173.044 185.022 194.839 203 218.5 203C231.854 203 244.22 197.763 254.121 187.914C261.61 180.464 266.461 171.551 268.243 161.967L269.353 156H349.677H430V285.5V415H218H6V285.5V156H86.823H167.647L168.757 161.967ZM231.795 162.878C237.932 166.034 243.788 171.647 246.475 176.95C250.33 184.559 250.156 185.825 244.739 189.572C236.225 195.461 229.762 197.385 218.5 197.385C207.238 197.385 200.775 195.461 192.261 189.572C186.844 185.825 186.67 184.559 190.525 176.95C194.024 170.045 201.93 163.517 209.994 160.876C214.671 159.343 227.151 160.489 231.795 162.878ZM34 276.5V328H85H136V276.5V225H85H34V276.5ZM167 276.5V328H218H269V276.5V225H218H167V276.5ZM297.462 226.241C297.197 226.933 297.097 250 297.24 277.5L297.5 327.5L348.759 327.759L400.018 328.018L399.759 276.759L399.5 225.5L348.722 225.241C308.633 225.036 297.843 225.247 297.462 226.241ZM130.76 276.75L131.02 323H85.01H39V276.49V229.98L84.75 230.24L130.5 230.5L130.76 276.75ZM264 276.5V323H218H172V276.5V230H218H264V276.5ZM394.5 276.5V322.5H348.5H302.5L302.239 277.5C302.096 252.75 302.196 231.933 302.462 231.24C302.843 230.247 312.635 230.035 348.722 230.24L394.5 230.5V276.5ZM37.676 348.657C37.304 349.029 37 350.158 37 351.167C37 352.92 39.169 353 86.57 353H136.139L135.82 350.75L135.5 348.5L86.926 348.241C60.21 348.098 38.048 348.285 37.676 348.657ZM170.676 348.657C170.304 349.029 170 350.158 170 351.167C170 352.92 172.169 353 219.57 353H269.139L268.82 350.75L268.5 348.5L219.926 348.241C193.21 348.098 171.048 348.285 170.676 348.657ZM300.973 349.533C300.143 350.532 300.029 351.429 300.652 352.052C301.256 352.656 320.008 352.922 350.56 352.76C398.747 352.504 399.5 352.469 399.5 350.5C399.5 348.531 398.747 348.496 350.88 348.241C307.953 348.012 302.11 348.163 300.973 349.533ZM37.676 361.657C37.304 362.029 37 363.163 37 364.176C37 365.945 38.974 366.008 86.25 365.759C134.747 365.504 135.5 365.469 135.5 363.5C135.5 361.531 134.747 361.496 86.926 361.241C60.21 361.098 38.048 361.285 37.676 361.657ZM170.676 361.657C170.304 362.029 170 363.158 170 364.167C170 365.92 172.169 366 219.57 366H269.139L268.82 363.75L268.5 361.5L219.926 361.241C193.21 361.098 171.048 361.285 170.676 361.657ZM300.339 362.558C300.007 363.425 300.159 364.559 300.677 365.077C301.248 365.648 320.887 365.917 350.56 365.76C398.747 365.504 399.5 365.469 399.5 363.5C399.5 361.531 398.747 361.496 350.222 361.241C306.124 361.008 300.881 361.147 300.339 362.558ZM37.179 376.241L37.5 378.5H86.5C134.833 378.5 135.5 378.473 135.5 376.5C135.5 374.531 134.747 374.496 86.179 374.241L36.858 373.981L37.179 376.241ZM170.18 376.25L170.5 378.5H219.5H268.5L268.82 376.25L269.139 374H219.5H169.861L170.18 376.25ZM300.339 375.558C300.007 376.425 300.159 377.559 300.677 378.077C301.248 378.648 320.887 378.917 350.56 378.76C398.747 378.504 399.5 378.469 399.5 376.5C399.5 374.531 398.747 374.496 350.222 374.241C306.124 374.008 300.881 374.147 300.339 375.558ZM37.18 389.25L37.5 391.5H86.5H135.5L135.82 389.25L136.139 387H86.5H36.861L37.18 389.25ZM170.18 389.25L170.5 391.5H219.5H268.5L268.82 389.25L269.139 387H219.5H169.861L170.18 389.25ZM300.479 388.034C300.121 388.614 300.375 389.747 301.044 390.553C302.088 391.811 309.169 391.982 350.88 391.759C398.747 391.504 399.5 391.469 399.5 389.5C399.5 387.531 398.747 387.496 350.315 387.241C316.679 387.063 300.924 387.314 300.479 388.034Z" fill="url(#paint0_linear_202_44)"/>
<defs>
<linearGradient id="paint0_linear_202_44" x1="1.70696e-08" y1="187.5" x2="436" y2="186.12" gradientUnits="userSpaceOnUse">
<stop stop-color="#AA367C"/>
<stop offset="1" stop-color="#4A2FBD"/>
</linearGradient>
</defs>
</svg>
