<svg width="246" height="420" viewBox="0 0 246 420" fill="none" xmlns="http://www.w3.org/2000/svg">
<path fill-rule="evenodd" clip-rule="evenodd" d="M18.494 0.617393C11.592 2.74239 5.457 7.93439 1.862 14.6924C0.0649995 18.0704 0 24.8444 0 209.692V401.192L2.162 405.192C4.711 409.907 9.614 414.731 14.5 417.33C17.849 419.112 22.502 419.192 122.5 419.192H227L231.068 417.014C233.306 415.817 236.775 413.023 238.778 410.806C246.016 402.795 245.55 417.433 245.26 207.151L245 18.1924L242.838 14.1924C240.289 9.47739 235.386 4.65339 230.5 2.05439C227.158 0.276393 222.349 0.184393 124 0.019393C67.35 -0.076607 19.872 0.193393 18.494 0.617393ZM225.884 5.92239C231.662 7.64839 237.865 14.1154 239.332 19.9414C241.01 26.6044 241.01 392.78 239.332 399.443C237.865 405.269 231.662 411.736 225.884 413.462C219.93 415.241 25.07 415.241 19.116 413.462C13.338 411.736 7.135 405.269 5.668 399.443C3.99 392.78 3.99 26.6044 5.668 19.9414C7.06 14.4124 13.267 7.6774 18.51 6.0084C23.775 4.3314 220.288 4.25039 225.884 5.92239ZM88.5 14.6924C85.709 17.4834 85.968 21.1294 89.135 23.6194C91.671 25.6144 92.925 25.6924 122.5 25.6924C152.075 25.6924 153.329 25.6144 155.865 23.6194C159.032 21.1294 159.291 17.4834 156.5 14.6924C154.583 12.7754 153.167 12.6924 122.5 12.6924C91.833 12.6924 90.417 12.7754 88.5 14.6924ZM153.25 18.9424C152.929 19.9054 145.878 20.1924 122.5 20.1924C99.122 20.1924 92.071 19.9054 91.75 18.9424C91.423 17.9604 98.011 17.6924 122.5 17.6924C146.989 17.6924 153.577 17.9604 153.25 18.9424ZM17.5 202.192V373.692H122.5H227.5V202.192V30.6924H122.5H17.5V202.192ZM222.5 84.1924V132.692H191.632H160.763L160.236 128.76C159.408 122.587 155.074 114.213 150.167 109.307C129.3 88.4404 94.332 98.5654 87.536 127.442L86.301 132.692H54.4H22.5V84.1924V35.6924H122.5H222.5V84.1924ZM137.695 106.51C143.684 109.453 149.734 115.501 152.687 121.497C156.031 128.284 156.017 142.127 152.661 148.942C151.374 151.555 149.966 153.692 149.532 153.692C149.098 153.692 148.185 152.347 147.504 150.703C146.104 147.322 140.14 141.591 135.552 139.219L132.484 137.632L134.651 134.702C136.186 132.626 136.797 130.404 136.747 127.088C136.662 121.472 134.376 117.94 129.142 115.339C124.198 112.882 119.425 113.817 114.669 118.176C111.3 121.263 111 121.986 111 127.01C111 130.818 111.532 133.07 112.75 134.416C115.204 137.128 114.945 138.265 111.55 139.671C107.655 141.285 101.953 146.903 99.646 151.4L97.795 155.008L94.95 149.1C91.201 141.313 90.85 129.725 94.146 122.57C97.244 115.842 102.811 110.196 109.834 106.658C115.531 103.788 116.647 103.577 124.5 103.877C130.874 104.121 134.174 104.779 137.695 106.51ZM129.5 121.692C132.558 124.75 132.227 130.975 128.865 133.619C120.975 139.826 110.885 129.216 117.955 122.147C121.064 119.037 126.626 118.818 129.5 121.692ZM86.911 141.949C89.79 161.149 110.26 175.507 129.62 171.907C144.694 169.104 156.764 157.717 159.692 143.539L160.906 137.664L191.453 137.928L222 138.192V253.192V368.192L162.272 368.45L102.543 368.708L102.272 349.45L102 330.192L73.75 329.926L45.5 329.661V349.176V368.692H34H22.5V253.192V137.692H54.386H86.273L86.911 141.949ZM135.073 145.25C140.849 148.844 145.655 156.549 143.901 159.403C143.297 160.387 140.19 162.536 136.998 164.179C132.034 166.733 130.078 167.166 123.5 167.166C116.922 167.166 114.966 166.733 110.002 164.179C102.767 160.456 101.733 158.958 103.482 154.734C108.381 142.909 123.848 138.266 135.073 145.25ZM45.5 225.208V250.723L73.75 250.458L102 250.192L102.267 224.942L102.534 199.692H74.017H45.5V225.208ZM96.5 225.192V245.692H73.5H50.5V225.192V204.692H73.5H96.5V225.192ZM117.84 206.248C117.507 207.116 117.659 208.251 118.179 208.771C118.749 209.341 135.341 209.611 160.061 209.453C200.246 209.197 201 209.155 201 207.192C201 205.229 200.246 205.187 159.723 204.931C122.89 204.698 118.381 204.84 117.84 206.248ZM117.836 224.259C117.505 225.121 117.659 226.251 118.179 226.771C118.749 227.341 135.341 227.611 160.061 227.453L201 227.192L201.32 224.942L201.639 222.692H160.038C123.189 222.692 118.369 222.871 117.836 224.259ZM117.884 239.133C117.575 239.938 117.614 241.068 117.97 241.644C118.405 242.347 132.269 242.692 160.129 242.692H201.639L201.32 240.442L201 238.192L159.723 237.931C124.249 237.706 118.367 237.875 117.884 239.133ZM45.5 289.208V314.723L73.75 314.458L102 314.192L102.267 288.942L102.534 263.692H74.017H45.5V289.208ZM96.5 289.192V309.692H73.5H50.5V289.192V268.692H73.5H96.5V289.192ZM117.84 270.248C117.507 271.116 117.659 272.251 118.179 272.771C118.749 273.341 135.341 273.611 160.061 273.453C200.246 273.197 201 273.155 201 271.192C201 269.229 200.246 269.187 159.723 268.931C122.89 268.698 118.381 268.84 117.84 270.248ZM117.836 288.259C117.505 289.121 117.659 290.251 118.179 290.771C118.749 291.341 135.341 291.611 160.061 291.453L201 291.192L201.32 288.942L201.639 286.692H160.038C123.189 286.692 118.369 286.871 117.836 288.259ZM117.884 303.133C117.575 303.938 117.614 305.068 117.97 305.644C118.405 306.347 132.269 306.692 160.129 306.692H201.639L201.32 304.442L201 302.192L159.723 301.931C124.249 301.706 118.367 301.875 117.884 303.133ZM96.5 351.711V368.73L73.75 368.461L51 368.192L50.723 352.734C50.57 344.232 50.669 336.695 50.941 335.984C51.326 334.981 56.475 334.692 73.969 334.692H96.5V351.711ZM118.75 335.354C116.97 336.072 117.201 339.363 119.082 340.085C119.952 340.419 138.14 340.692 159.5 340.692C180.86 340.692 199.048 340.419 199.918 340.085C201.964 339.3 201.964 336.084 199.918 335.299C198.03 334.574 120.552 334.627 118.75 335.354ZM118.75 353.348C118.063 353.629 117.5 354.721 117.5 355.775C117.5 357.634 118.776 357.692 159.57 357.692H201.639L201.32 355.442L201 353.192L160.5 353.015C138.225 352.918 119.438 353.068 118.75 353.348ZM115.242 381.916C102.276 389.431 107.526 409.077 122.5 409.077C133.64 409.077 140.381 398.276 135.515 388.223C131.664 380.269 122.827 377.52 115.242 381.916ZM128.35 387.219C134.172 392.118 132.933 400.36 125.934 403.284C122.951 404.53 122.049 404.53 119.066 403.284C114.846 401.521 112.115 396.723 113.01 392.646C113.833 388.897 118.851 384.692 122.5 384.692C124.085 384.692 126.677 385.812 128.35 387.219Z" fill="url(#paint0_linear_202_42)"/>
<defs>
<linearGradient id="paint0_linear_202_42" x1="1.09062e-07" y1="190" x2="244.981" y2="185.49" gradientUnits="userSpaceOnUse">
<stop stop-color="#AA367C"/>
<stop offset="1" stop-color="#4A2FBD"/>
</linearGradient>
</defs>
</svg>
