<svg width="512" height="512" viewBox="0 0 512 512" fill="none" xmlns="http://www.w3.org/2000/svg">
<path fill-rule="evenodd" clip-rule="evenodd" d="M0 256V512H256H512V256V0H256H0V256ZM504.954 29.8667V53.6381H256H7.04587V29.8667V6.09524H256H504.954V29.8667ZM24.8837 17.0984C9.63288 26.7508 22.9108 50.5612 38.791 42.0364C48.2666 36.9493 47.9859 21.3772 38.3331 16.6217C32.997 13.9934 29.5985 14.1129 24.8837 17.0984ZM58.9939 17.063C50.4872 22.4475 49.5618 33.3275 57.0316 40.1359C66.1713 48.4669 79.8532 41.9121 79.8532 29.2011C79.8532 23.9982 76.6285 18.7099 72.0945 16.4766C67.0661 13.9995 63.5878 14.1556 58.9939 17.063ZM93.0489 16.9947C84.534 22.5353 83.6192 33.3288 91.0867 40.1359C100.428 48.651 113.908 41.8901 113.908 28.6903C113.908 25.4879 112.904 23.2082 110.091 20.0216C105.173 14.4494 98.7209 13.3035 93.0489 16.9947ZM36.8323 23.2509C40.6183 26.3412 40.9576 31.844 37.578 35.3524C32.6388 40.4797 24.2695 36.6458 24.2695 29.2571C24.2695 26.5265 25.135 24.4919 26.9434 22.9717C30.4088 20.0582 33.0134 20.1314 36.8323 23.2509ZM70.8873 23.2509C74.6733 26.3412 75.0127 31.844 71.633 35.3524C68.4272 38.6804 63.9061 38.4134 60.3115 34.6819C56.8367 31.0747 57.2043 26.4058 61.2439 22.8571C64.4345 20.0546 67.1072 20.1643 70.8873 23.2509ZM104.942 23.2509C108.767 26.3729 108.986 31.1003 105.484 34.9696C101.998 38.8206 97.1179 38.6536 94.0307 34.5783C90.8342 30.3604 90.9575 27.3713 94.4793 23.7166C97.9999 20.0607 100.879 19.9326 104.942 23.2509ZM504.954 121.905V184.076H410.422H315.89V179.328C315.89 171.973 311.658 159.477 306.397 151.298C285.123 118.227 241.74 113.538 214.899 141.412C210.701 145.772 205.83 152.121 204.075 155.522C200.483 162.486 197.284 174.045 197.284 180.066V184.076H102.165H7.04587V121.905V59.7333H256H504.954V121.905ZM274.161 132.862C287.725 137.706 298.154 147.465 304.89 161.613C308.749 169.716 309.257 171.916 309.738 182.552C310.187 192.514 309.861 195.721 307.718 202.362C305.19 210.2 300.229 219.429 298.545 219.429C298.066 219.429 296.522 216.822 295.115 213.637C291.685 205.875 282.718 196.803 274.7 192.98L268.152 189.858L270.948 186.956C278.84 178.761 279.071 166.387 271.484 158.063C266.972 153.11 262.765 151.162 256.587 151.162C245.396 151.162 235.986 160.839 236.063 172.27C236.097 177.34 239.796 185.694 243.058 188.065C245.58 189.9 245.483 190.011 238.45 193.287C230.171 197.144 219.472 208.166 217.264 215.111C216.509 217.485 215.411 219.429 214.825 219.429C212.966 219.429 208.105 210.573 205.456 202.362C203.313 195.721 202.987 192.514 203.437 182.552C203.917 171.916 204.425 169.716 208.284 161.613C220.687 135.559 248.153 123.572 274.161 132.862ZM266.074 161.005C270.223 165.052 272.001 171.978 270.107 176.723C265.061 189.369 249.633 189.951 243.543 177.725C240.384 171.385 244.058 161.296 250.584 158.387C254.746 156.532 262.901 157.911 266.074 161.005ZM198.173 197.445C203.208 225.551 228.802 247.467 256.587 247.467C272.269 247.467 286.79 241.083 298.417 229.076C307.212 219.994 312.908 209.129 315.001 197.445L316.304 190.171H410.63H504.954V348.038V505.905H256H7.04587V348.038V190.171H101.957H196.87L198.173 197.445ZM272.2 198.556C279.406 202.403 286.283 209.246 289.439 215.71C293.965 224.986 293.761 226.53 287.4 231.097C277.402 238.276 269.812 240.622 256.587 240.622C243.362 240.622 235.772 238.276 225.774 231.097C219.413 226.53 219.209 224.986 223.736 215.71C227.845 207.293 237.129 199.335 246.598 196.116C252.091 194.247 266.746 195.644 272.2 198.556ZM39.9266 337.067V399.848H99.8165H159.706V337.067V274.286H99.8165H39.9266V337.067ZM196.11 337.067V399.848H256H315.89V337.067V274.286H256H196.11V337.067ZM349.313 275.799C349.002 276.642 348.885 304.762 349.052 338.286L349.358 399.238L409.552 399.554L469.746 399.87L469.442 337.382L469.138 274.895L409.508 274.58C362.431 274.33 349.761 274.587 349.313 275.799ZM153.553 337.371L153.858 393.752H99.8283H45.7982V337.054V280.357L99.5229 280.674L153.248 280.99L153.553 337.371ZM310.018 337.067V393.752H256H201.982V337.067V280.381H256H310.018V337.067ZM463.266 337.067V393.143H409.248H355.229L354.923 338.286C354.755 308.114 354.872 282.737 355.185 281.893C355.632 280.682 367.131 280.424 409.508 280.674L463.266 280.99V337.067ZM44.2434 425.03C43.8065 425.483 43.4495 426.859 43.4495 428.089C43.4495 430.226 45.9966 430.324 101.66 430.324H159.87L159.495 427.581L159.119 424.838L102.078 424.522C70.7053 424.348 44.6802 424.576 44.2434 425.03ZM200.427 425.03C199.99 425.483 199.633 426.859 199.633 428.089C199.633 430.226 202.18 430.324 257.844 430.324H316.053L315.679 427.581L315.303 424.838L258.262 424.522C226.889 424.348 200.864 424.576 200.427 425.03ZM353.436 426.097C352.461 427.315 352.328 428.409 353.059 429.168C353.769 429.904 375.789 430.229 411.667 430.031C468.253 429.719 469.138 429.677 469.138 427.276C469.138 424.876 468.253 424.833 412.043 424.522C361.633 424.243 354.771 424.427 353.436 426.097ZM44.2434 440.877C43.8065 441.331 43.4495 442.713 43.4495 443.948C43.4495 446.104 45.7676 446.181 101.284 445.878C158.235 445.567 159.119 445.524 159.119 443.124C159.119 440.724 158.235 440.681 102.078 440.37C70.7053 440.196 44.6802 440.424 44.2434 440.877ZM200.427 440.877C199.99 441.331 199.633 442.707 199.633 443.937C199.633 446.074 202.18 446.171 257.844 446.171H316.053L315.679 443.429L315.303 440.686L258.262 440.37C226.889 440.196 200.864 440.424 200.427 440.877ZM352.692 441.976C352.302 443.032 352.48 444.415 353.089 445.046C353.759 445.742 376.821 446.07 411.667 445.879C468.253 445.567 469.138 445.524 469.138 443.124C469.138 440.724 468.253 440.681 411.27 440.37C359.485 440.086 353.328 440.255 352.692 441.976ZM43.6597 458.656L44.0367 461.41H101.578C158.336 461.41 159.119 461.377 159.119 458.971C159.119 456.571 158.235 456.528 101.201 456.218L43.2828 455.901L43.6597 458.656ZM199.844 458.667L200.22 461.41H257.761H315.303L315.679 458.667L316.053 455.924H257.761H199.47L199.844 458.667ZM352.692 457.823C352.302 458.88 352.48 460.262 353.089 460.894C353.759 461.59 376.821 461.918 411.667 461.727C468.253 461.414 469.138 461.372 469.138 458.971C469.138 456.571 468.253 456.528 411.27 456.218C359.485 455.934 353.328 456.103 352.692 457.823ZM43.6609 474.514L44.0367 477.257H101.578H159.119L159.495 474.514L159.87 471.771H101.578H43.2863L43.6609 474.514ZM199.844 474.514L200.22 477.257H257.761H315.303L315.679 474.514L316.053 471.771H257.761H199.47L199.844 474.514ZM352.856 473.032C352.436 473.739 352.734 475.12 353.52 476.103C354.746 477.636 363.061 477.845 412.043 477.573C468.253 477.262 469.138 477.219 469.138 474.819C469.138 472.419 468.253 472.376 411.379 472.065C371.88 471.848 353.379 472.154 352.856 473.032Z" fill="url(#paint0_linear_202_44)"/>
<defs>
<linearGradient id="paint0_linear_202_44" x1="2.0045e-08" y1="228.571" x2="512.001" y2="227.01" gradientUnits="userSpaceOnUse">
<stop stop-color="#AA367C"/>
<stop offset="1" stop-color="#4A2FBD"/>
</linearGradient>
</defs>
</svg>
